STARTFONT 2.1
FONT -Bitstream-Terminal-Bold-R-Normal--50-360-100-100-C-300-DEC-DECtech
SIZE 36 100 100
FONTBOUNDINGBOX 30 50 0 -10

STARTPROPERTIES 27
FOUNDRY "Bitstream"
FAMILY_NAME "Terminal"
WEIGHT_NAME "Bold"
SLANT "R"
SETWIDTH_NAME "Normal"
ADD_STYLE_NAME ""
PIXEL_SIZE 50
POINT_SIZE 360
RESOLUTION_X 100
RESOLUTION_Y 100
SPACING "C"
AVERAGE_WIDTH 300
CHARSET_REGISTRY "DEC"
CHARSET_ENCODING "DECtech"
CAP_HEIGHT 30
COPYRIGHT "Copyright (c) 1991 Digital Equipment Corporation. All Rights Reserved."
_DEC_PRODUCTINFO "DECterm Fonts V2.2, 11-Nov-1991"
AVG_CAPITAL_WIDTH 300
AVG_LOWERCASE_WIDTH 300
FIGURE_WIDTH 300
FULL_NAME "Terminal Bold"
WEIGHT 10
X_HEIGHT -4
QUAD_WIDTH 29
DEFAULT_CHAR 159
FONT_DESCENT 10
FONT_ASCENT 40
ENDPROPERTIES

CHARS 182

STARTCHAR space
ENCODING 32
SWIDTH 565 0
DWIDTH 30 0
BBX 1 1 0 0
BITMAP
00
ENDCHAR

STARTCHAR exclam
ENCODING 33
SWIDTH 565 0
DWIDTH 30 0
BBX 12 30 10 0
BITMAP
3FC0
3FC0
3FC0
3FC0
3FC0
3FC0
3FC0
3FC0
3FC0
3FC0
3FC0
3FC0
3FC0
3FC0
3FC0
3FC0
3FC0
3FC0
0000
0000
0F00
0F00
FFF0
FFF0
FFF0
FFF0
FFF0
FFF0
0F00
0F00
ENDCHAR

STARTCHAR quotedbl
ENCODING 34
SWIDTH 565 0
DWIDTH 30 0
BBX 16 14 7 20
BITMAP
FC3F
FC3F
FC3F
FC3F
FC3F
FC3F
FC3F
FC3F
FC3F
FC3F
FC3F
FC3F
FC3F
FC3F
ENDCHAR

STARTCHAR numbersign
ENCODING 35
SWIDTH 565 0
DWIDTH 30 0
BBX 28 38 1 -8
BITMAP
03F0FC00
03F0FC00
03F0FC00
03F0FC00
03F0FC00
03F0FC00
03F0FC00
03F0FC00
03F0FC00
03F0FC00
FFFFFFF0
FFFFFFF0
FFFFFFF0
FFFFFFF0
FFFFFFF0
FFFFFFF0
03F0FC00
03F0FC00
03F0FC00
03F0FC00
03F0FC00
03F0FC00
FFFFFFF0
FFFFFFF0
FFFFFFF0
FFFFFFF0
FFFFFFF0
FFFFFFF0
03F0FC00
03F0FC00
03F0FC00
03F0FC00
03F0FC00
03F0FC00
03F0FC00
03F0FC00
03F0FC00
03F0FC00
ENDCHAR

STARTCHAR dollar
ENCODING 36
SWIDTH 565 0
DWIDTH 30 0
BBX 24 44 3 -8
BITMAP
003F00
003F00
003F00
003F00
003F00
003F00
03FF3F
03FF3F
3FFFFF
3FFFFF
3FFFFF
3FFFFF
FF00FF
FF00FF
FF003F
FF003F
FFF000
FFF000
FFFF00
FFFF00
0FFFF0
0FFFF0
00FFFC
00FFFC
000FFF
000FFF
FC00FF
FC00FF
FF00FF
FF00FF
FFFFFF
FFFFFF
FFFFFC
FFFFFC
FCFFC0
FCFFC0
00FC00
00FC00
00FC00
00FC00
00FC00
00FC00
00FC00
00FC00
ENDCHAR

STARTCHAR percent
ENCODING 37
SWIDTH 565 0
DWIDTH 30 0
BBX 24 32 3 -2
BITMAP
0FC000
3FF000
7FF800
7FF800
F87C00
F87C00
F87C0F
F87C0F
F87C3C
F87C3C
7FF8F0
7FF8F0
3FF3C0
0FC3C0
000F00
000F00
00F000
00F000
03C3F0
03CFFC
0F1FFE
0F1FFE
3C3E1F
3C3E1F
F03E1F
F03E1F
003E1F
003E1F
001FFE
001FFE
000FFC
0003F0
ENDCHAR

STARTCHAR ampersand
ENCODING 38
SWIDTH 565 0
DWIDTH 30 0
BBX 24 30 2 0
BITMAP
03FF3C
03FF3C
0FFFFC
0FFFFC
0FF8FC
0FF0FC
0FF03C
0FF03C
0FF000
0FF000
03F83F
03FC3F
03FC3F
03FC3F
0FFF3F
1FFF3F
7F3FFC
7F3FFC
FF0FFC
FF0FFC
FF0FFC
FF0FFC
FF03FC
FF83FC
FFFFFF
FFFFFF
7FFFFF
7FFFFF
0FFF3F
03FF3F
ENDCHAR

STARTCHAR quoteright
ENCODING 39
SWIDTH 565 0
DWIDTH 30 0
BBX 14 14 8 22
BITMAP
0FFC
0FFC
0FFC
0FFC
3FF0
3FF0
3FC0
3FC0
FF00
FF00
FC00
FC00
F000
F000
ENDCHAR

STARTCHAR parenleft
ENCODING 40
SWIDTH 565 0
DWIDTH 30 0
BBX 16 42 8 -6
BITMAP
003F
003F
00FC
00FC
03FC
03FC
0FF0
0FF0
3FC0
3FC0
3FC0
3FC0
FF00
FF00
FF00
FF00
FF00
FF00
FF00
FF00
FF00
FF00
FF00
FF00
FF00
FF00
FF00
FF00
FF00
FF00
3FC0
3FC0
3FC0
3FC0
0FF0
0FF0
03FC
03FC
00FC
00FC
003F
003F
ENDCHAR

STARTCHAR parenright
ENCODING 41
SWIDTH 565 0
DWIDTH 30 0
BBX 16 42 6 -6
BITMAP
FC00
FC00
3F00
3F00
3FC0
3FC0
0FC0
0FC0
0FF0
0FF0
03FC
03FC
03FC
03FC
00FF
00FF
00FF
00FF
00FF
00FF
00FF
00FF
00FF
00FF
00FF
00FF
00FF
00FF
00FF
00FF
03FC
03FC
03FC
03FC
03F0
03F0
0FF0
0FF0
0FC0
0FC0
3F00
3F00
ENDCHAR

STARTCHAR asterisk
ENCODING 42
SWIDTH 565 0
DWIDTH 30 0
BBX 26 22 2 4
BITMAP
003F0000
003F0000
003F0000
003F0000
003F0000
003F0000
FCFFCFC0
FCFFCFC0
FFFFFFC0
FFFFFFC0
3FFFFF00
3FFFFF00
03FFF000
03FFF000
03FFF000
03FFF000
0FF3FC00
0FF3FC00
3FC0FF00
3FC0FF00
3F003F00
3F003F00
ENDCHAR

STARTCHAR plus
ENCODING 43
SWIDTH 565 0
DWIDTH 30 0
BBX 24 26 3 2
BITMAP
00FF00
00FF00
00FF00
00FF00
00FF00
00FF00
00FF00
00FF00
00FF00
00FF00
FFFFFF
FFFFFF
FFFFFF
FFFFFF
FFFFFF
FFFFFF
00FF00
00FF00
00FF00
00FF00
00FF00
00FF00
00FF00
00FF00
00FF00
00FF00
ENDCHAR

STARTCHAR comma
ENCODING 44
SWIDTH 565 0
DWIDTH 30 0
BBX 12 16 10 -8
BITMAP
3FF0
3FF0
3FF0
3FF0
3FC0
3FC0
3FC0
3FC0
FF00
FF00
FF00
FF00
FF00
FF00
FC00
FC00
ENDCHAR

STARTCHAR minus
ENCODING 45
SWIDTH 565 0
DWIDTH 30 0
BBX 20 6 5 12
BITMAP
FFFFF0
FFFFF0
FFFFF0
FFFFF0
FFFFF0
FFFFF0
ENDCHAR

STARTCHAR period
ENCODING 46
SWIDTH 565 0
DWIDTH 30 0
BBX 12 10 10 0
BITMAP
0F00
0F00
FFF0
FFF0
FFF0
FFF0
FFF0
FFF0
0F00
0F00
ENDCHAR

STARTCHAR slash
ENCODING 47
SWIDTH 565 0
DWIDTH 30 0
BBX 22 40 4 -6
BITMAP
0000FC
0000FC
0000FC
0000FC
0003FC
0003FC
0003F0
0003F0
0003F0
0003F0
000FF0
000FF0
000FC0
000FC0
003FC0
003FC0
003F00
003F00
003F00
003F00
00FC00
00FC00
00FC00
00FC00
03FC00
03FC00
03F000
03F000
0FF000
0FF000
0FC000
0FC000
3FC000
3FC000
3F0000
3F0000
FF0000
FF0000
FC0000
FC0000
ENDCHAR

STARTCHAR zero
ENCODING 48
SWIDTH 565 0
DWIDTH 30 0
BBX 22 30 4 0
BITMAP
00FC00
00FC00
0FFFC0
0FFFC0
3FCFF0
3FCFF0
3F03F0
3F03F0
FF03FC
FF03FC
FF03FC
FF03FC
FF03FC
FF03FC
FF03FC
FF03FC
FF03FC
FF03FC
FF03FC
FF03FC
FF03FC
FF03FC
3F03F0
3F03F0
3FCFF0
3FCFF0
0FFFC0
0FFFC0
00FC00
00FC00
ENDCHAR

STARTCHAR one
ENCODING 49
SWIDTH 565 0
DWIDTH 30 0
BBX 21 30 5 0
BITMAP
01FE00
03FE00
0FFE00
1FFE00
3FFE00
7FFE00
FFFE00
FDFE00
F1FE00
C1FE00
01FE00
01FE00
01FE00
01FE00
01FE00
01FE00
01FE00
01FE00
01FE00
01FE00
01FE00
01FE00
01FE00
01FE00
7FFFF8
7FFFF8
7FFFF8
7FFFF8
7FFFF8
7FFFF8
ENDCHAR

STARTCHAR two
ENCODING 50
SWIDTH 565 0
DWIDTH 30 0
BBX 22 30 4 0
BITMAP
0FFF00
0FFFC0
FFFFF0
FFFFF0
FFFFF8
FFFFF8
FC07FC
FC03FC
FC03FC
FC03FC
0007F8
000FF8
003FF0
003FE0
00FFC0
00FF80
03FF00
03FC00
0FF800
0FF000
3FE0FC
3FC0FC
FF80FC
FF00FC
FFFFFC
FFFFFC
FFFFFC
FFFFFC
FFFFFC
FFFFFC
ENDCHAR

STARTCHAR three
ENCODING 51
SWIDTH 565 0
DWIDTH 30 0
BBX 22 30 4 0
BITMAP
0FFF00
0FFF00
FFFFC0
FFFFC0
FFFFF0
FFFFF0
FC1FF0
FC0FF0
000FF0
000FF0
000FF0
001FF0
03FFC0
03FFC0
03FFF0
03FFF0
03FFFC
03FFFC
0003FC
0003FC
0003FC
0003FC
FC03FC
FC07FC
FFFFFC
FFFFFC
FFFFF0
FFFFF0
0FFF00
0FFF00
ENDCHAR

STARTCHAR four
ENCODING 52
SWIDTH 565 0
DWIDTH 30 0
BBX 26 30 2 0
BITMAP
0003FC00
0003FC00
000FFC00
000FFC00
003FFC00
003FFC00
00FFFC00
00FFFC00
03FBFC00
03F3FC00
0FE3FC00
0FC3FC00
3FC3FC00
3F83FC00
7F03FC00
7E03FC00
FFFFFFC0
FFFFFFC0
FFFFFFC0
FFFFFFC0
FFFFFFC0
FFFFFFC0
0003FC00
0003FC00
0003FC00
0003FC00
0003FC00
0003FC00
0003FC00
0003FC00
ENDCHAR

STARTCHAR five
ENCODING 53
SWIDTH 565 0
DWIDTH 30 0
BBX 22 30 4 0
BITMAP
FFFFF0
FFFFF0
FFFFF0
FFFFF0
FFFFF0
FFFFF0
FF0000
FF0000
FF0000
FF0000
FFFE00
FFFFC0
FFFFE0
FFFFF0
FFFFF0
FFFFF8
FC0FFC
FC0FFC
0003FC
0003FC
0003FC
0003FC
FC0FFC
FC0FFC
FFFFF8
FFFFF0
FFFFF0
FFFFE0
3FFF80
3FFE00
ENDCHAR

STARTCHAR six
ENCODING 54
SWIDTH 565 0
DWIDTH 30 0
BBX 22 30 4 0
BITMAP
003FF0
003FF0
03FFF0
03FFF0
0FFFF0
0FFFF0
3FE000
3FC000
3F0000
3F0000
FF3F00
FE7FC0
FFFFF0
FFFFF0
FFFFF8
FFFFFC
FFC3FC
FFC3FC
FF00FC
FF00FC
FF00FC
FF00FC
3FC3FC
3FC3FC
3FFFF8
3FFFF0
0FFFF0
0FFFE0
03FF80
03FF00
ENDCHAR

STARTCHAR seven
ENCODING 55
SWIDTH 565 0
DWIDTH 30 0
BBX 22 30 4 0
BITMAP
FFFFFC
FFFFFC
FFFFFC
FFFFFC
FFFFFC
FFFFFC
FC01FC
FC01FC
FC01F8
FC01F8
0001F8
0001F8
000FE0
000FE0
000FE0
000FE0
000FE0
003F80
003F80
003F80
003F80
00FE00
00FE00
00FE00
00FE00
00FE00
03FC00
03FC00
03FC00
03FC00
ENDCHAR

STARTCHAR eight
ENCODING 56
SWIDTH 565 0
DWIDTH 30 0
BBX 22 30 4 0
BITMAP
03FF00
0FFFC0
3FFFF0
3FFFF0
FF87FC
FF03FC
FF03FC
FF03FC
FF03FC
FF03FC
3F03F0
3F87F0
0FFFC0
0FFFC0
3FFFF0
3FFFF0
FF87FC
FF03FC
FF03FC
FF03FC
FF03FC
FF03FC
FF03FC
FF03FC
FF03FC
FF87FC
3FFFF0
3FFFF0
0FFFC0
03FF00
ENDCHAR

STARTCHAR nine
ENCODING 57
SWIDTH 565 0
DWIDTH 30 0
BBX 22 30 4 0
BITMAP
07FF00
07FF00
3FFFC0
3FFFC0
3FFFF0
3FFFF0
FE07F0
FC03F0
FC03FC
FC03FC
FC03FC
FC03FC
FC03FC
FE07FC
FFFFFC
7FFFFC
7FFFFC
3FFFFC
0FF3FC
07E3FC
0003F0
0003F0
003FF0
003FF0
3FFFC0
3FFFC0
3FFF00
3FFF00
3FF000
3FF000
ENDCHAR

STARTCHAR colon
ENCODING 58
SWIDTH 565 0
DWIDTH 30 0
BBX 12 24 10 0
BITMAP
0F00
0F00
FFF0
FFF0
FFF0
FFF0
FFF0
FFF0
0F00
0F00
0000
0000
0000
0000
0F00
0F00
FFF0
FFF0
FFF0
FFF0
FFF0
FFF0
0F00
0F00
ENDCHAR

STARTCHAR semicolon
ENCODING 59
SWIDTH 565 0
DWIDTH 30 0
BBX 14 32 8 -8
BITMAP
03C0
03C0
3FFC
3FFC
3FFC
3FFC
3FFC
3FFC
03C0
03C0
0000
0000
0000
0000
0000
0000
3FF0
3FF0
3FF0
3FF0
3FC0
3FC0
3FC0
3FC0
FF00
FF00
FF00
FF00
FF00
FF00
FC00
FC00
ENDCHAR

STARTCHAR less
ENCODING 60
SWIDTH 565 0
DWIDTH 30 0
BBX 22 26 4 2
BITMAP
00003C
00003C
0003FC
0003FC
000FFC
000FFC
00FFC0
00FFC0
0FFC00
0FFC00
FFC000
FFC000
FF0000
FF0000
FFC000
FFC000
0FFC00
0FFC00
03FFC0
03FFC0
003FFC
003FFC
0003FC
0003FC
00003C
00003C
ENDCHAR

STARTCHAR equal
ENCODING 61
SWIDTH 565 0
DWIDTH 30 0
BBX 22 18 4 6
BITMAP
FFFFFC
FFFFFC
FFFFFC
FFFFFC
FFFFFC
FFFFFC
000000
000000
000000
000000
000000
000000
FFFFFC
FFFFFC
FFFFFC
FFFFFC
FFFFFC
FFFFFC
ENDCHAR

STARTCHAR greater
ENCODING 62
SWIDTH 565 0
DWIDTH 30 0
BBX 22 26 4 2
BITMAP
F00000
F00000
FF0000
FF0000
FFF000
FFF000
0FFF00
0FFF00
00FFC0
00FFC0
000FFC
000FFC
0003FC
0003FC
000FFC
000FFC
00FFC0
00FFC0
0FFC00
0FFC00
FFC000
FFC000
FF0000
FF0000
F00000
F00000
ENDCHAR

STARTCHAR question
ENCODING 63
SWIDTH 565 0
DWIDTH 30 0
BBX 20 30 6 0
BITMAP
0FFE00
3FFF80
7FFFE0
FFFFE0
FFFFF0
FFFFF0
FE0FF0
FE0FF0
000FF0
001FF0
00FFF0
00FFF0
03FFC0
03FFC0
0FFE00
0FFC00
0FF000
0FF000
000000
000000
03C000
03C000
3FFC00
3FFC00
3FFC00
3FFC00
3FFC00
3FFC00
03C000
03C000
ENDCHAR

STARTCHAR at
ENCODING 64
SWIDTH 565 0
DWIDTH 30 0
BBX 26 38 2 -6
BITMAP
00FFC000
00FFC000
0FFFF000
0FFFF000
3F00FC00
3F00FC00
3C003C00
3C003C00
FC003F00
FC003F00
FC0FFF00
FC0FFF00
FC3FFF00
FC3FFF00
FCFC3F00
FCFC3F00
FCFC3F00
FCFC3F00
FCFC3F00
FCFC3F00
FCFC3F00
FCFC3F00
FCFFFFC0
FCFFFFC0
FC0FCFC0
FC0FCFC0
FC000000
FC000000
FF000000
FF000000
3FC00F00
3FC00F00
0FFFFF00
0FFFFF00
03FFFC00
03FFFC00
003FC000
003FC000
ENDCHAR

STARTCHAR A
ENCODING 65
SWIDTH 565 0
DWIDTH 30 0
BBX 28 30 0 0
BITMAP
00FFF000
00FFF000
00FFF000
00FFF000
00FFF000
00FFF000
00FFF000
00FFF000
03FFFC00
03FFFC00
03F0FC00
03F0FC00
03F0FF00
03F0FF00
0FF0FF00
0FF0FF00
0FFFFF00
0FFFFF00
0FFFFFC0
0FFFFFC0
3FFFFFC0
3FFFFFC0
3FC03FC0
3FC03FC0
FFF0FFF0
FFF0FFF0
FFF0FFF0
FFF0FFF0
FFF0FFF0
FFF0FFF0
ENDCHAR

STARTCHAR B
ENCODING 66
SWIDTH 565 0
DWIDTH 30 0
BBX 24 30 2 0
BITMAP
FFFFC0
FFFFF0
FFFFFC
FFFFFC
FFFFFE
FFFFFF
3FC0FF
3FC0FF
3FC0FF
3FC0FE
3FC0FC
3FC0FC
3FFFF0
3FFFF0
3FFFFC
3FFFFC
3FC0FE
3FC0FE
3FC0FF
3FC0FF
3FC0FF
3FC0FF
3FC0FF
3FC0FF
FFFFFE
FFFFFE
FFFFFC
FFFFFC
FFFFF0
FFFFC0
ENDCHAR

STARTCHAR C
ENCODING 67
SWIDTH 565 0
DWIDTH 30 0
BBX 22 30 4 0
BITMAP
03FC3C
03FC3C
3FFFFC
3FFFFC
3FFFFC
3FFFFC
FFC0FC
FFC0FC
FF00FC
FF00FC
FF0000
FF0000
FF0000
FF0000
FF0000
FF0000
FF0000
FF0000
FF0000
FF0000
FF0000
FF0000
FFC0FC
FFC0FC
3FFFFC
3FFFFC
3FFFFC
3FFFFC
03FFC0
03FFC0
ENDCHAR

STARTCHAR D
ENCODING 68
SWIDTH 565 0
DWIDTH 30 0
BBX 24 30 2 0
BITMAP
FFFFC0
FFFFC0
FFFFFC
FFFFFC
FFFFFC
FFFFFC
3FC1FF
3FC0FF
3FC0FF
3FC0FF
3FC0FF
3FC0FF
3FC0FF
3FC0FF
3FC0FF
3FC0FF
3FC0FF
3FC0FF
3FC0FF
3FC0FF
3FC0FF
3FC0FF
3FC0FF
3FC1FF
FFFFFC
FFFFFC
FFFFFC
FFFFFC
FFFFC0
FFFFC0
ENDCHAR

STARTCHAR E
ENCODING 69
SWIDTH 565 0
DWIDTH 30 0
BBX 22 30 4 0
BITMAP
FFFFFC
FFFFFC
FFFFFC
FFFFFC
FFFFFC
FFFFFC
3FC0FC
3FC0FC
3FC000
3FC000
3FC000
3FC000
3FFFC0
3FFFC0
3FFFC0
3FFFC0
3FFFC0
3FFFC0
3FC000
3FC000
3FC000
3FC000
3FC0FC
3FC0FC
FFFFFC
FFFFFC
FFFFFC
FFFFFC
FFFFFC
FFFFFC
ENDCHAR

STARTCHAR F
ENCODING 70
SWIDTH 565 0
DWIDTH 30 0
BBX 24 30 3 0
BITMAP
FFFFFF
FFFFFF
FFFFFF
FFFFFF
FFFFFF
FFFFFF
0FF03F
0FF03F
0FF000
0FF000
0FF000
0FF000
0FFFF0
0FFFF0
0FFFF0
0FFFF0
0FFFF0
0FFFF0
0FF000
0FF000
0FF000
0FF000
0FF000
0FF000
FFFF00
FFFF00
FFFF00
FFFF00
FFFF00
FFFF00
ENDCHAR

STARTCHAR G
ENCODING 71
SWIDTH 565 0
DWIDTH 30 0
BBX 24 30 3 0
BITMAP
03FF0F
03FF0F
3FFFFF
3FFFFF
3FFFFF
3FFFFF
FFC03F
FFC03F
FF003F
FF003F
FF0000
FF0000
FF0000
FF0000
FF0FFF
FF0FFF
FF0FFF
FF0FFF
FF0FFF
FF0FFF
FF00FF
FF00FF
FFC0FF
FFC0FF
3FFFFC
3FFFFC
3FFFFC
3FFFFC
03FFC0
03FFC0
ENDCHAR

STARTCHAR H
ENCODING 72
SWIDTH 565 0
DWIDTH 30 0
BBX 26 30 2 0
BITMAP
FFC0FFC0
FFC0FFC0
FFC0FFC0
FFC0FFC0
FFC0FFC0
FFC0FFC0
3FC0FF00
3FC0FF00
3FC0FF00
3FC0FF00
3FFFFF00
3FFFFF00
3FFFFF00
3FFFFF00
3FFFFF00
3FFFFF00
3FFFFF00
3FFFFF00
3FC0FF00
3FC0FF00
3FC0FF00
3FC0FF00
3FC0FF00
3FC0FF00
FFC0FFC0
FFC0FFC0
FFC0FFC0
FFC0FFC0
FFC0FFC0
FFC0FFC0
ENDCHAR

STARTCHAR I
ENCODING 73
SWIDTH 565 0
DWIDTH 30 0
BBX 20 30 5 0
BITMAP
FFFFF0
FFFFF0
FFFFF0
FFFFF0
FFFFF0
FFFFF0
03FC00
03FC00
03FC00
03FC00
03FC00
03FC00
03FC00
03FC00
03FC00
03FC00
03FC00
03FC00
03FC00
03FC00
03FC00
03FC00
03FC00
03FC00
FFFFF0
FFFFF0
FFFFF0
FFFFF0
FFFFF0
FFFFF0
ENDCHAR

STARTCHAR J
ENCODING 74
SWIDTH 565 0
DWIDTH 30 0
BBX 24 30 3 0
BITMAP
00FFFF
00FFFF
00FFFF
00FFFF
00FFFF
00FFFF
0003FC
0003FC
0003FC
0003FC
0003FC
0003FC
0003FC
0003FC
0003FC
0003FC
FC03FC
FC03FC
FC03FC
FC03FC
FC03FC
FC03FC
FF03FC
FF03FC
FFFFF0
FFFFF0
3FFFF0
3FFFF0
03FF00
03FF00
ENDCHAR

STARTCHAR K
ENCODING 75
SWIDTH 565 0
DWIDTH 30 0
BBX 24 30 3 0
BITMAP
FFC3FF
FFC3FF
FFC3FF
FFC3FF
FFC3FF
FFC3FF
3FCFF0
3FCFF0
3FCFC0
3FCFC0
3FFF00
3FFF00
3FFF00
3FFF00
3FFFC0
3FFFC0
3FFFC0
3FFFC0
3FCFF0
3FCFF0
3FCFF0
3FCFF0
3FC3FC
3FC3FC
FFC3FF
FFC3FF
FFC3FF
FFC3FF
FFC3FF
FFC3FF
ENDCHAR

STARTCHAR L
ENCODING 76
SWIDTH 565 0
DWIDTH 30 0
BBX 24 30 4 0
BITMAP
FFFF00
FFFF00
FFFF00
FFFF00
FFFF00
FFFF00
0FF000
0FF000
0FF000
0FF000
0FF000
0FF000
0FF000
0FF000
0FF000
0FF000
0FF03F
0FF03F
0FF03F
0FF03F
0FF03F
0FF03F
0FF03F
0FF03F
FFFFFF
FFFFFF
FFFFFF
FFFFFF
FFFFFF
FFFFFF
ENDCHAR

STARTCHAR M
ENCODING 77
SWIDTH 565 0
DWIDTH 30 0
BBX 26 30 2 0
BITMAP
FF003FC0
FF003FC0
FF003FC0
FF003FC0
FFC0FFC0
FFC0FFC0
3FC0FF00
3FC0FF00
3FF3FF00
3FF3FF00
3FFFFF00
3FFFFF00
3FFFFF00
3FFFFF00
3FFFFF00
3FFFFF00
3F3F3F00
3F3F3F00
3F3F3F00
3F1E3F00
3F1E3F00
3F0C3F00
3F0C3F00
3F0C3F00
FF003FC0
FF003FC0
FF003FC0
FF003FC0
FF003FC0
FF003FC0
ENDCHAR

STARTCHAR N
ENCODING 78
SWIDTH 565 0
DWIDTH 30 0
BBX 22 30 4 0
BITMAP
FF03FC
FF03FC
FF03FC
FF03FC
FF03FC
FF03FC
3FC3F0
3FC3F0
3FC3F0
3FC3F0
3FF3F0
3FF3F0
3FF3F0
3FFFF0
3FFFF0
3FFFF0
3FFFF0
3FFFF0
3F3FF0
3F3FF0
3F3FF0
3F3FF0
3F0FF0
3F0FF0
FF0FF0
FF03F0
FF03F0
FF03F0
FF03F0
FF03F0
ENDCHAR

STARTCHAR O
ENCODING 79
SWIDTH 565 0
DWIDTH 30 0
BBX 24 30 3 0
BITMAP
03FFC0
03FFC0
3FFFFC
3FFFFC
3FFFFC
3FFFFC
FFC3FF
FFC3FF
FF00FF
FF00FF
FF00FF
FF00FF
FF00FF
FF00FF
FF00FF
FF00FF
FF00FF
FF00FF
FF00FF
FF00FF
FF00FF
FF00FF
FFC3FF
FFC3FF
3FFFFC
3FFFFC
3FFFFC
3FFFFC
03FFC0
03FFC0
ENDCHAR

STARTCHAR P
ENCODING 80
SWIDTH 565 0
DWIDTH 30 0
BBX 24 30 3 0
BITMAP
FFFFF0
FFFFF0
FFFFFC
FFFFFC
FFFFFF
FFFFFF
3FC0FF
3FC0FF
3FC0FF
3FC0FF
3FC0FF
3FC0FF
3FC0FF
3FC0FF
3FFFFF
3FFFFF
3FFFFC
3FFFFC
3FFFF0
3FFFF0
3FC000
3FC000
3FC000
3FC000
FFFC00
FFFC00
FFFC00
FFFC00
FFFC00
FFFC00
ENDCHAR

STARTCHAR Q
ENCODING 81
SWIDTH 565 0
DWIDTH 30 0
BBX 24 38 3 -8
BITMAP
03FFC0
03FFC0
3FFFFC
3FFFFC
3FFFFC
3FFFFC
FFC3FF
FFC3FF
FF00FF
FF00FF
FF00FF
FF00FF
FF00FF
FF00FF
FF00FF
FF00FF
FF00FF
FF00FF
FF00FF
FF00FF
FF00FF
FF00FF
FFC3FF
FFC3FF
3FFFFC
3FFFFC
3FFFFC
3FFFFC
03FFC0
03FFC0
03F000
03F000
0FFFFC
0FFFFC
0FFFFC
0FFFFC
0FCFFC
0FCFFC
ENDCHAR

STARTCHAR R
ENCODING 82
SWIDTH 565 0
DWIDTH 30 0
BBX 26 30 2 0
BITMAP
FFFFF000
FFFFF000
FFFFFC00
FFFFFC00
FFFFFF00
FFFFFF00
3FC0FF00
3FC0FF00
3FC0FF00
3FC0FF00
3FC0FF00
3FC0FF00
3FFFFC00
3FFFFC00
3FFFF000
3FFFF000
3FFFF000
3FFFF000
3FC3FC00
3FC3FC00
3FC3FC00
3FC3FC00
3FC0FF00
3FC0FF00
FFC0FFC0
FFC0FFC0
FFC03FC0
FFC03FC0
FFC03FC0
FFC03FC0
ENDCHAR

STARTCHAR S
ENCODING 83
SWIDTH 565 0
DWIDTH 30 0
BBX 20 30 5 0
BITMAP
0FF0F0
0FF0F0
3FFFF0
3FFFF0
FFFFF0
FFFFF0
FF0FF0
FF0FF0
FF00F0
FF00F0
FFC000
FFC000
FFFC00
FFFC00
3FFFC0
3FFFC0
03FFF0
03FFF0
003FF0
003FF0
F00FF0
F00FF0
FC0FF0
FC0FF0
FFFFF0
FFFFF0
FFFFC0
FFFFC0
F3FF00
F3FF00
ENDCHAR

STARTCHAR T
ENCODING 84
SWIDTH 565 0
DWIDTH 30 0
BBX 28 30 1 0
BITMAP
FFFFFFF0
FFFFFFF0
FFFFFFF0
FFFFFFF0
FFFFFFF0
FFFFFFF0
FC3FC3F0
FC3FC3F0
FC3FC3F0
FC3FC3F0
FC3FC3F0
003FC000
003FC000
003FC000
003FC000
003FC000
003FC000
003FC000
003FC000
003FC000
003FC000
003FC000
003FC000
003FC000
03FFFC00
03FFFC00
03FFFC00
03FFFC00
03FFFC00
03FFFC00
ENDCHAR

STARTCHAR U
ENCODING 85
SWIDTH 565 0
DWIDTH 30 0
BBX 24 30 3 0
BITMAP
FFC3FF
FFC3FF
FFC3FF
FFC3FF
FFC3FF
FFC3FF
3FC3FC
3FC3FC
3FC3FC
3FC3FC
3FC3FC
3FC3FC
3FC3FC
3FC3FC
3FC3FC
3FC3FC
3FC3FC
3FC3FC
3FC3FC
3FC3FC
3FC3FC
3FC3FC
3FC3FC
3FC3FC
3FFFFC
3FFFFC
0FFFF0
0FFFF0
03FFC0
03FFC0
ENDCHAR

STARTCHAR V
ENCODING 86
SWIDTH 565 0
DWIDTH 30 0
BBX 26 30 2 0
BITMAP
FF807FC0
FF807FC0
FF807FC0
FF807FC0
FF807FC0
FF807FC0
3F807F00
3F807F00
3F807F00
3F807F00
3F807F00
3F807F00
3FE1FF00
3FE1FF00
07E1F800
07E1F800
07E1F800
07E1F800
07E1F800
07E1F800
07FFF800
07FFF800
01FFE000
01FFE000
01FFE000
01FFE000
007F8000
007F8000
007F8000
007F8000
ENDCHAR

STARTCHAR W
ENCODING 87
SWIDTH 565 0
DWIDTH 30 0
BBX 28 30 1 0
BITMAP
FFC03FF0
FFC03FF0
FFC03FF0
FFC03FF0
FFC03FF0
FFC03FF0
3F000FC0
3F000FC0
3F000FC0
3F000FC0
3F0F0FC0
3F0F0FC0
3F0F0FC0
3F0F0FC0
3F0F0FC0
3F1F8FC0
3F3FCFC0
3F3FCFC0
3FFFFFC0
3FFFFFC0
0FFFFF00
0FF9FF00
0FF9FF00
0FF9FF00
0FE07F00
0FE07F00
03E07C00
03E07C00
03E07C00
03E07C00
ENDCHAR

STARTCHAR X
ENCODING 88
SWIDTH 565 0
DWIDTH 30 0
BBX 26 30 2 0
BITMAP
FFE1FFC0
FFE1FFC0
FFE1FFC0
FFE1FFC0
FFE1FFC0
FFE1FFC0
3F803F00
1F807E00
1FC0FE00
0FE1FC00
07F3F800
07FFF000
01FFE000
01FFC000
007F8000
007F8000
007F8000
007FC000
01FFE000
01FFE000
07FFF800
07F3F800
1FE1FE00
1FE1FE00
7F80FF80
7F807F80
7F807F80
7F807F80
7F807F80
7F807F80
ENDCHAR

STARTCHAR Y
ENCODING 89
SWIDTH 565 0
DWIDTH 30 0
BBX 24 30 3 0
BITMAP
FF81FF
FF81FF
FF81FF
FF81FF
FF81FF
FF81FF
3F81FC
3F81FC
0FE7F0
0FE7F0
0FE7F0
0FE7F0
03FFC0
03FFC0
03FFC0
03FFC0
00FF00
00FF00
00FF00
00FF00
00FF00
00FF00
00FF00
00FF00
03FFC0
03FFC0
03FFC0
03FFC0
03FFC0
03FFC0
ENDCHAR

STARTCHAR Z
ENCODING 90
SWIDTH 565 0
DWIDTH 30 0
BBX 20 30 5 0
BITMAP
FFFFF0
FFFFF0
FFFFF0
FFFFF0
FFFFF0
FFFFF0
F03FC0
F03FC0
F03FC0
F03FC0
00FF00
00FF00
00FF00
00FF00
03FC00
03FC00
03FC00
03FC00
0FF000
0FF000
3FF0F0
3FF0F0
3FC0F0
3FC0F0
FFFFF0
FFFFF0
FFFFF0
FFFFF0
FFFFF0
FFFFF0
ENDCHAR

STARTCHAR bracketleft
ENCODING 91
SWIDTH 565 0
DWIDTH 30 0
BBX 14 44 8 -8
BITMAP
FFFC
FFFC
FFFC
FFFC
FFFC
FFFC
FF00
FF00
FF00
FF00
FF00
FF00
FF00
FF00
FF00
FF00
FF00
FF00
FF00
FF00
FF00
FF00
FF00
FF00
FF00
FF00
FF00
FF00
FF00
FF00
FF00
FF00
FF00
FF00
FF00
FF00
FF00
FF00
FFFC
FFFC
FFFC
FFFC
FFFC
FFFC
ENDCHAR

STARTCHAR backslash
ENCODING 92
SWIDTH 565 0
DWIDTH 30 0
BBX 20 40 4 -6
BITMAP
FC0000
FC0000
FC0000
FC0000
FF0000
FF0000
3F0000
3F0000
3F0000
3F0000
3FC000
3FC000
0FC000
0FC000
0FF000
0FF000
0FF000
0FF000
03F000
03F000
03FC00
03FC00
00FC00
00FC00
00FF00
00FF00
003F00
003F00
003FC0
003FC0
003FC0
003FC0
000FC0
000FC0
000FF0
000FF0
0003F0
0003F0
0003F0
0003F0
ENDCHAR

STARTCHAR bracketright
ENCODING 93
SWIDTH 565 0
DWIDTH 30 0
BBX 14 44 6 -8
BITMAP
FFFC
FFFC
FFFC
FFFC
FFFC
FFFC
03FC
03FC
03FC
03FC
03FC
03FC
03FC
03FC
03FC
03FC
03FC
03FC
03FC
03FC
03FC
03FC
03FC
03FC
03FC
03FC
03FC
03FC
03FC
03FC
03FC
03FC
03FC
03FC
03FC
03FC
03FC
03FC
FFFC
FFFC
FFFC
FFFC
FFFC
FFFC
ENDCHAR

STARTCHAR asciicircum
ENCODING 94
SWIDTH 565 0
DWIDTH 30 0
BBX 20 12 5 10
BITMAP
00F000
00F000
03FC00
03FC00
0FFF00
0FFF00
3F9FC0
3F9FC0
FE07F0
FE07F0
F801F0
F801F0
ENDCHAR

STARTCHAR ldblank
ENCODING 95
SWIDTH 565 0
DWIDTH 30 0
BBX 1 1 0 0
BITMAP
00
ENDCHAR

STARTCHAR diamond
ENCODING 96
SWIDTH 565 0
DWIDTH 30 0
BBX 24 26 3 0
BITMAP
001800
003C00
007E00
00FF00
01FF80
03FFC0
07FFE0
0FFFF0
1FFFF8
3FFFFC
7FFFFE
7FFFFE
FFFFFF
FFFFFF
7FFFFE
7FFFFE
3FFFFC
1FFFF8
0FFFF0
07FFE0
03FFC0
01FF80
00FF00
007E00
003C00
001800
ENDCHAR

STARTCHAR checkerboard
ENCODING 97
SWIDTH 565 0
DWIDTH 28 0
BBX 28 50 0 -10
BITMAP
CCCCCCC0
CCCCCCC0
33333330
33333330
CCCCCCC0
CCCCCCC0
33333330
33333330
CCCCCCC0
CCCCCCC0
33333330
33333330
CCCCCCC0
CCCCCCC0
33333330
33333330
CCCCCCC0
CCCCCCC0
33333330
33333330
CCCCCCC0
CCCCCCC0
33333330
33333330
CCCCCCC0
CCCCCCC0
33333330
33333330
CCCCCCC0
CCCCCCC0
33333330
33333330
CCCCCCC0
CCCCCCC0
33333330
33333330
CCCCCCC0
CCCCCCC0
33333330
33333330
CCCCCCC0
CCCCCCC0
33333330
33333330
CCCCCCC0
CCCCCCC0
33333330
33333330
CCCCCCC0
CCCCCCC0
ENDCHAR

STARTCHAR HT
ENCODING 98
SWIDTH 565 0
DWIDTH 30 0
BBX 22 38 4 -4
BITMAP
FC3F00
FC3F00
FC3F00
FC3F00
FC3F00
FC3F00
FFFF00
FFFF00
FFFF00
FFFF00
FC3F00
FC3F00
FC3F00
FC3F00
FC3F00
FC3F00
FC3F00
FC3F00
000000
000000
00FFFC
00FFFC
00FFFC
00FFFC
000FC0
000FC0
000FC0
000FC0
000FC0
000FC0
000FC0
000FC0
000FC0
000FC0
000FC0
000FC0
000FC0
000FC0
ENDCHAR

STARTCHAR FF
ENCODING 99
SWIDTH 565 0
DWIDTH 30 0
BBX 22 38 4 -4
BITMAP
FFF000
FFF000
FFF000
FFF000
FC0000
FC0000
FC0000
FC0000
FFF000
FFF000
FFF000
FFF000
FC0000
FC0000
FC0000
FC0000
FC0000
FC0000
000000
000000
003FFC
003FFC
003FFC
003FFC
003F00
003F00
003F00
003F00
003FFC
003FFC
003FFC
003FFC
003F00
003F00
003F00
003F00
003F00
003F00
ENDCHAR

STARTCHAR CR
ENCODING 100
SWIDTH 565 0
DWIDTH 30 0
BBX 22 38 4 -4
BITMAP
0FF000
0FF000
3FFC00
3FFC00
FC3F00
FC3F00
FC3F00
FC3F00
FC0000
FC0000
FC3F00
FC3F00
FC3F00
FC3F00
3FFC00
3FFC00
0FF000
0FF000
000000
000000
03FFC0
03FFF0
03FFF8
03FFFC
03F0FC
03F0FC
03F0FC
03F0F8
03FFF0
03FFE0
03FFE0
03FFF0
03F0F8
03F0F8
03F0FC
03F07C
03F07C
03F07C
ENDCHAR

STARTCHAR LF
ENCODING 101
SWIDTH 565 0
DWIDTH 30 0
BBX 22 38 4 -4
BITMAP
FC0000
FC0000
FC0000
FC0000
FC0000
FC0000
FC0000
FC0000
FC0000
FC0000
FC0000
FC0000
FC0000
FC0000
FFF000
FFF000
FFF000
FFF000
000000
000000
003FFC
003FFC
003FFC
003FFC
003F00
003F00
003F00
003F00
003FFC
003FFC
003FFC
003FFC
003F00
003F00
003F00
003F00
003F00
003F00
ENDCHAR

STARTCHAR degree
ENCODING 102
SWIDTH 565 0
DWIDTH 30 0
BBX 18 16 6 20
BITMAP
0FFC00
0FFC00
3FFF00
3FFF00
FC0FC0
FC0FC0
FC0FC0
FC0FC0
FC0FC0
FC0FC0
FC0FC0
FC0FC0
3FFF00
3FFF00
0FFC00
0FFC00
ENDCHAR

STARTCHAR plusminus
ENCODING 103
SWIDTH 565 0
DWIDTH 30 0
BBX 22 30 4 0
BITMAP
00FC00
00FC00
00FC00
00FC00
00FC00
00FC00
00FC00
00FC00
FFFFFC
FFFFFC
FFFFFC
FFFFFC
FFFFFC
FFFFFC
00FC00
00FC00
00FC00
00FC00
00FC00
00FC00
00FC00
00FC00
000000
000000
FFFFFC
FFFFFC
FFFFFC
FFFFFC
FFFFFC
FFFFFC
ENDCHAR

STARTCHAR NL
ENCODING 104
SWIDTH 565 0
DWIDTH 30 0
BBX 22 38 4 -4
BITMAP
F03C00
F03C00
F83C00
FC3C00
FC3C00
FE3C00
FF3C00
FF3C00
FFFC00
FFFC00
F3FC00
F3FC00
F1FC00
F0FC00
F0FC00
F07C00
F03C00
F03C00
000000
000000
003F00
003F00
003F00
003F00
003F00
003F00
003F00
003F00
003F00
003F00
003F00
003F00
003F00
003F00
003FFC
003FFC
003FFC
003FFC
ENDCHAR

STARTCHAR VT
ENCODING 105
SWIDTH 565 0
DWIDTH 30 0
BBX 22 38 4 -4
BITMAP
F03C00
F03C00
F03C00
F03C00
F03C00
F03C00
FCFC00
FCFC00
FCFC00
FCFC00
3CF000
3CF000
3FF000
3FF000
0FC000
0FC000
0FC000
0FC000
000000
000000
00FFFC
00FFFC
00FFFC
00FFFC
000FC0
000FC0
000FC0
000FC0
000FC0
000FC0
000FC0
000FC0
000FC0
000FC0
000FC0
000FC0
000FC0
000FC0
ENDCHAR

STARTCHAR ldcornsqlr
ENCODING 106
SWIDTH 565 0
DWIDTH 30 0
BBX 18 28 0 12
BITMAP
003FC0
003FC0
003FC0
003FC0
003FC0
003FC0
003FC0
003FC0
003FC0
003FC0
003FC0
003FC0
003FC0
003FC0
003FC0
003FC0
003FC0
003FC0
003FC0
003FC0
003FC0
003FC0
FFFFC0
FFFFC0
FFFFC0
FFFFC0
FFFFC0
FFFFC0
ENDCHAR

STARTCHAR ldcornsqur
ENCODING 107
SWIDTH 565 0
DWIDTH 30 0
BBX 18 28 0 -10
BITMAP
FFFFC0
FFFFC0
FFFFC0
FFFFC0
FFFFC0
FFFFC0
003FC0
003FC0
003FC0
003FC0
003FC0
003FC0
003FC0
003FC0
003FC0
003FC0
003FC0
003FC0
003FC0
003FC0
003FC0
003FC0
003FC0
003FC0
003FC0
003FC0
003FC0
003FC0
ENDCHAR

STARTCHAR ldcornsqul
ENCODING 108
SWIDTH 565 0
DWIDTH 30 0
BBX 20 28 10 -10
BITMAP
FFFFF0
FFFFF0
FFFFF0
FFFFF0
FFFFF0
FFFFF0
FF0000
FF0000
FF0000
FF0000
FF0000
FF0000
FF0000
FF0000
FF0000
FF0000
FF0000
FF0000
FF0000
FF0000
FF0000
FF0000
FF0000
FF0000
FF0000
FF0000
FF0000
FF0000
ENDCHAR

STARTCHAR ldcornsqll
ENCODING 109
SWIDTH 565 0
DWIDTH 30 0
BBX 20 28 10 12
BITMAP
FF0000
FF0000
FF0000
FF0000
FF0000
FF0000
FF0000
FF0000
FF0000
FF0000
FF0000
FF0000
FF0000
FF0000
FF0000
FF0000
FF0000
FF0000
FF0000
FF0000
FF0000
FF0000
FFFFF0
FFFFF0
FFFFF0
FFFFF0
FFFFF0
FFFFF0
ENDCHAR

STARTCHAR ldcross
ENCODING 110
SWIDTH 565 0
DWIDTH 30 0
BBX 30 50 0 -10
BITMAP
003FC000
003FC000
003FC000
003FC000
003FC000
003FC000
003FC000
003FC000
003FC000
003FC000
003FC000
003FC000
003FC000
003FC000
003FC000
003FC000
003FC000
003FC000
003FC000
003FC000
003FC000
003FC000
FFFFFFFC
FFFFFFFC
FFFFFFFC
FFFFFFFC
FFFFFFFC
FFFFFFFC
003FC000
003FC000
003FC000
003FC000
003FC000
003FC000
003FC000
003FC000
003FC000
003FC000
003FC000
003FC000
003FC000
003FC000
003FC000
003FC000
003FC000
003FC000
003FC000
003FC000
003FC000
003FC000
ENDCHAR

STARTCHAR ldscan1
ENCODING 111
SWIDTH 565 0
DWIDTH 30 0
BBX 30 6 0 30
BITMAP
FFFFFFFC
FFFFFFFC
FFFFFFFC
FFFFFFFC
FFFFFFFC
FFFFFFFC
ENDCHAR

STARTCHAR ldscan3
ENCODING 112
SWIDTH 565 0
DWIDTH 30 0
BBX 30 6 0 20
BITMAP
FFFFFFFC
FFFFFFFC
FFFFFFFC
FFFFFFFC
FFFFFFFC
FFFFFFFC
ENDCHAR

STARTCHAR ldhorizontal
ENCODING 113
SWIDTH 565 0
DWIDTH 30 0
BBX 30 6 0 12
BITMAP
FFFFFFFC
FFFFFFFC
FFFFFFFC
FFFFFFFC
FFFFFFFC
FFFFFFFC
ENDCHAR

STARTCHAR ldscan7
ENCODING 114
SWIDTH 565 0
DWIDTH 30 0
BBX 30 6 0 0
BITMAP
FFFFFFFC
FFFFFFFC
FFFFFFFC
FFFFFFFC
FFFFFFFC
FFFFFFFC
ENDCHAR

STARTCHAR ldscan9
ENCODING 115
SWIDTH 565 0
DWIDTH 30 0
BBX 30 6 0 -10
BITMAP
FFFFFFFC
FFFFFFFC
FFFFFFFC
FFFFFFFC
FFFFFFFC
FFFFFFFC
ENDCHAR

STARTCHAR ldteelft
ENCODING 116
SWIDTH 565 0
DWIDTH 30 0
BBX 20 50 10 -10
BITMAP
FF0000
FF0000
FF0000
FF0000
FF0000
FF0000
FF0000
FF0000
FF0000
FF0000
FF0000
FF0000
FF0000
FF0000
FF0000
FF0000
FF0000
FF0000
FF0000
FF0000
FF0000
FF0000
FFFFF0
FFFFF0
FFFFF0
FFFFF0
FFFFF0
FFFFF0
FF0000
FF0000
FF0000
FF0000
FF0000
FF0000
FF0000
FF0000
FF0000
FF0000
FF0000
FF0000
FF0000
FF0000
FF0000
FF0000
FF0000
FF0000
FF0000
FF0000
FF0000
FF0000
ENDCHAR

STARTCHAR ldteert
ENCODING 117
SWIDTH 565 0
DWIDTH 30 0
BBX 18 50 0 -10
BITMAP
003FC0
003FC0
003FC0
003FC0
003FC0
003FC0
003FC0
003FC0
003FC0
003FC0
003FC0
003FC0
003FC0
003FC0
003FC0
003FC0
003FC0
003FC0
003FC0
003FC0
003FC0
003FC0
FFFFC0
FFFFC0
FFFFC0
FFFFC0
FFFFC0
FFFFC0
003FC0
003FC0
003FC0
003FC0
003FC0
003FC0
003FC0
003FC0
003FC0
003FC0
003FC0
003FC0
003FC0
003FC0
003FC0
003FC0
003FC0
003FC0
003FC0
003FC0
003FC0
003FC0
ENDCHAR

STARTCHAR ldteebt
ENCODING 118
SWIDTH 565 0
DWIDTH 30 0
BBX 30 28 0 12
BITMAP
003FC000
003FC000
003FC000
003FC000
003FC000
003FC000
003FC000
003FC000
003FC000
003FC000
003FC000
003FC000
003FC000
003FC000
003FC000
003FC000
003FC000
003FC000
003FC000
003FC000
003FC000
003FC000
FFFFFFFC
FFFFFFFC
FFFFFFFC
FFFFFFFC
FFFFFFFC
FFFFFFFC
ENDCHAR

STARTCHAR ldteetp
ENCODING 119
SWIDTH 565 0
DWIDTH 30 0
BBX 30 28 0 -10
BITMAP
FFFFFFFC
FFFFFFFC
FFFFFFFC
FFFFFFFC
FFFFFFFC
FFFFFFFC
003FC000
003FC000
003FC000
003FC000
003FC000
003FC000
003FC000
003FC000
003FC000
003FC000
003FC000
003FC000
003FC000
003FC000
003FC000
003FC000
003FC000
003FC000
003FC000
003FC000
003FC000
003FC000
ENDCHAR

STARTCHAR ldvertical
ENCODING 120
SWIDTH 565 0
DWIDTH 30 0
BBX 8 50 10 -10
BITMAP
FF
FF
FF
FF
FF
FF
FF
FF
FF
FF
FF
FF
FF
FF
FF
FF
FF
FF
FF
FF
FF
FF
FF
FF
FF
FF
FF
FF
FF
FF
FF
FF
FF
FF
FF
FF
FF
FF
FF
FF
FF
FF
FF
FF
FF
FF
FF
FF
FF
FF
ENDCHAR

STARTCHAR lessequal
ENCODING 121
SWIDTH 565 0
DWIDTH 30 0
BBX 24 28 3 0
BITMAP
00003F
00003F
000FFF
000FFF
00FFFF
00FFFF
0FFFC0
0FFFC0
FFF000
FFF000
FFF000
FFF000
0FFFC0
0FFFC0
00FFFF
00FFFF
000FFF
000FFF
00003F
00003F
000000
000000
FFFFFF
FFFFFF
FFFFFF
FFFFFF
FFFFFF
FFFFFF
ENDCHAR

STARTCHAR greaterequal
ENCODING 122
SWIDTH 565 0
DWIDTH 30 0
BBX 24 28 3 0
BITMAP
FC0000
FC0000
FFF000
FFF000
FFFF00
FFFF00
03FFF0
03FFF0
000FFF
000FFF
000FFF
000FFF
03FFF0
03FFF0
FFFF00
FFFF00
FFF000
FFF000
FC0000
FC0000
000000
000000
FFFFFF
FFFFFF
FFFFFF
FFFFFF
FFFFFF
FFFFFF
ENDCHAR

STARTCHAR pi
ENCODING 123
SWIDTH 565 0
DWIDTH 30 0
BBX 25 24 3 0
BITMAP
FFFFFF80
FFFFFF80
FFFFFF80
FFFFFF80
0FE1FC00
0FE1FC00
0FE1FC00
0FE1FC00
0FE1FC00
3FE3FC00
3F87F000
3F87F000
3F87F000
3F87F000
3F87F000
3F87F000
FF9FF000
FF9FF000
FE1FC000
FE1FC000
FE1FFC00
FE1FFC00
FE1FFC00
FE0FFC00
ENDCHAR

STARTCHAR notequal
ENCODING 124
SWIDTH 565 0
DWIDTH 30 0
BBX 24 28 3 0
BITMAP
0001F8
0001F8
0001F8
0003F0
0003F0
0003F0
FFFFFF
FFFFFF
FFFFFF
FFFFFF
FFFFFF
FFFFFF
003F00
003F00
007E00
007E00
FFFFFF
FFFFFF
FFFFFF
FFFFFF
FFFFFF
FFFFFF
03F000
03F000
03F000
07E000
07E000
07E000
ENDCHAR

STARTCHAR sterling
ENCODING 125
SWIDTH 565 0
DWIDTH 30 0
BBX 23 30 3 0
BITMAP
007F80
01FFE0
07FFF0
07FFF8
0FFFF8
1FFFF8
1FE1F8
1FC1F8
1FC000
1FC000
1FE000
0FE000
07F800
07F800
FFFFE0
FFFFE0
FFFFE0
FFFFE0
07F000
07F000
07F000
07F000
1FE07E
1FE07E
7FFFFE
7FFFFE
7FFFF8
7FFFF8
7E1FE0
7E1FE0
ENDCHAR

STARTCHAR periodcentered
ENCODING 126
SWIDTH 565 0
DWIDTH 30 0
BBX 12 10 10 8
BITMAP
0F00
0F00
FFF0
FFF0
FFF0
FFF0
FFF0
FFF0
0F00
0F00
ENDCHAR

STARTCHAR Error
ENCODING 159
SWIDTH 565 0
DWIDTH 30 0
BBX 30 50 0 -10
BITMAP
03FFFE00
03FFFF00
03FFFF00
3FFFFFC0
3FFFFFC0
3FFFFFF0
3FFFFFF0
FFFFFFF0
FFFFFFF0
FFF03FFC
FFF03FFC
FFC00FFC
FFC00FFC
FFC00FFC
FFC00FFC
FFF00000
FFF00000
3FF00000
3FF00000
3FFC0000
3FFC0000
0FFF0000
0FFF0000
0FFF0000
0FFF0000
03FFC000
03FFC000
00FFC000
00FFC000
00FFC000
00FFC000
00FFC000
00FFC000
00FFC000
00FFC000
00000000
00000000
00000000
00000000
00000000
00000000
00FFC000
00FFC000
00FFC000
00FFC000
00FFC000
00FFC000
00FFC000
00FFC000
00FFC000
ENDCHAR

STARTCHAR space
ENCODING 160
SWIDTH 565 0
DWIDTH 30 0
BBX 1 1 0 0
BITMAP
00
ENDCHAR

STARTCHAR ldradicalbt
ENCODING 161
SWIDTH 565 0
DWIDTH 30 0
BBX 18 32 0 8
BITMAP
003FC0
003FC0
003FC0
003FC0
003FC0
003FC0
003FC0
003FC0
003FC0
003FC0
003FC0
003FC0
003FC0
003FC0
C03FC0
C03FC0
F03FC0
F03FC0
FC3FC0
FC3FC0
FF3FC0
FF3FC0
FFFFC0
3FFFC0
0FFFC0
0FFFC0
03FFC0
03FFC0
00FFC0
00FFC0
003FC0
003FC0
ENDCHAR

STARTCHAR ldradicaltp
ENCODING 162
SWIDTH 565 0
DWIDTH 30 0
BBX 20 26 10 -10
BITMAP
FFFFF0
FFFFF0
FFFFF0
FFFFF0
FF0000
FF0000
FF0000
FF0000
FF0000
FF0000
FF0000
FF0000
FF0000
FF0000
FF0000
FF0000
FF0000
FF0000
FF0000
FF0000
FF0000
FF0000
FF0000
FF0000
FF0000
FF0000
ENDCHAR

STARTCHAR ldhorizontal
ENCODING 163
SWIDTH 565 0
DWIDTH 30 0
BBX 30 6 0 12
BITMAP
FFFFFFFC
FFFFFFFC
FFFFFFFC
FFFFFFFC
FFFFFFFC
FFFFFFFC
ENDCHAR

STARTCHAR ldintegraltp
ENCODING 164
SWIDTH 565 0
DWIDTH 30 0
BBX 16 46 10 -10
BITMAP
0FFF
0FFF
3FFF
3FFF
3FFF
3FFF
FFC0
FFC0
FF00
FF00
FF00
FF00
FF00
FF00
FF00
FF00
FF00
FF00
FF00
FF00
FF00
FF00
FF00
FF00
FF00
FF00
FF00
FF00
FF00
FF00
FF00
FF00
FF00
FF00
FF00
FF00
FF00
FF00
FF00
FF00
FF00
FF00
FF00
FF00
FF00
FF00
ENDCHAR

STARTCHAR ldintegralbt
ENCODING 165
SWIDTH 565 0
DWIDTH 30 0
BBX 16 48 2 -8
BITMAP
00FF
00FF
00FF
00FF
00FF
00FF
00FF
00FF
00FF
00FF
00FF
00FF
00FF
00FF
00FF
00FF
00FF
00FF
00FF
00FF
00FF
00FF
00FF
00FF
00FF
00FF
00FF
00FF
00FF
00FF
00FF
00FF
00FF
00FF
00FF
00FF
00FF
00FF
00FF
00FF
03FF
03FF
FFFC
FFFC
FFFC
FFFC
FFF0
FFF0
ENDCHAR

STARTCHAR ldvertical
ENCODING 166
SWIDTH 565 0
DWIDTH 30 0
BBX 8 50 10 -10
BITMAP
FF
FF
FF
FF
FF
FF
FF
FF
FF
FF
FF
FF
FF
FF
FF
FF
FF
FF
FF
FF
FF
FF
FF
FF
FF
FF
FF
FF
FF
FF
FF
FF
FF
FF
FF
FF
FF
FF
FF
FF
FF
FF
FF
FF
FF
FF
FF
FF
FF
FF
ENDCHAR

STARTCHAR ldbracketlfttp
ENCODING 167
SWIDTH 565 0
DWIDTH 30 0
BBX 14 46 10 -10
BITMAP
FFFC
FFFC
FFFC
FFFC
FFFC
FFFC
FF00
FF00
FF00
FF00
FF00
FF00
FF00
FF00
FF00
FF00
FF00
FF00
FF00
FF00
FF00
FF00
FF00
FF00
FF00
FF00
FF00
FF00
FF00
FF00
FF00
FF00
FF00
FF00
FF00
FF00
FF00
FF00
FF00
FF00
FF00
FF00
FF00
FF00
FF00
FF00
ENDCHAR

STARTCHAR ldbracketlftbt
ENCODING 168
SWIDTH 565 0
DWIDTH 30 0
BBX 14 48 10 -8
BITMAP
FF00
FF00
FF00
FF00
FF00
FF00
FF00
FF00
FF00
FF00
FF00
FF00
FF00
FF00
FF00
FF00
FF00
FF00
FF00
FF00
FF00
FF00
FF00
FF00
FF00
FF00
FF00
FF00
FF00
FF00
FF00
FF00
FF00
FF00
FF00
FF00
FF00
FF00
FF00
FF00
FF00
FF00
FFFC
FFFC
FFFC
FFFC
FFFC
FFFC
ENDCHAR

STARTCHAR ldbracketrttp
ENCODING 169
SWIDTH 565 0
DWIDTH 30 0
BBX 14 46 4 -10
BITMAP
FFFC
FFFC
FFFC
FFFC
FFFC
FFFC
03FC
03FC
03FC
03FC
03FC
03FC
03FC
03FC
03FC
03FC
03FC
03FC
03FC
03FC
03FC
03FC
03FC
03FC
03FC
03FC
03FC
03FC
03FC
03FC
03FC
03FC
03FC
03FC
03FC
03FC
03FC
03FC
03FC
03FC
03FC
03FC
03FC
03FC
03FC
03FC
ENDCHAR

STARTCHAR ldbracketrtbt
ENCODING 170
SWIDTH 565 0
DWIDTH 30 0
BBX 14 48 4 -8
BITMAP
03FC
03FC
03FC
03FC
03FC
03FC
03FC
03FC
03FC
03FC
03FC
03FC
03FC
03FC
03FC
03FC
03FC
03FC
03FC
03FC
03FC
03FC
03FC
03FC
03FC
03FC
03FC
03FC
03FC
03FC
03FC
03FC
03FC
03FC
03FC
03FC
03FC
03FC
03FC
03FC
03FC
03FC
FFFC
FFFC
FFFC
FFFC
FFFC
FFFC
ENDCHAR

STARTCHAR ldbracelfttp
ENCODING 171
SWIDTH 565 0
DWIDTH 30 0
BBX 16 46 10 -10
BITMAP
0FFF
0FFF
3FFF
3FFF
3FFF
3FFF
FFC0
FFC0
FF00
FF00
FF00
FF00
FF00
FF00
FF00
FF00
FF00
FF00
FF00
FF00
FF00
FF00
FF00
FF00
FF00
FF00
FF00
FF00
FF00
FF00
FF00
FF00
FF00
FF00
FF00
FF00
FF00
FF00
FF00
FF00
FF00
FF00
FF00
FF00
FF00
FF00
ENDCHAR

STARTCHAR ldbracelftbt
ENCODING 172
SWIDTH 565 0
DWIDTH 30 0
BBX 16 48 10 -8
BITMAP
FF00
FF00
FF00
FF00
FF00
FF00
FF00
FF00
FF00
FF00
FF00
FF00
FF00
FF00
FF00
FF00
FF00
FF00
FF00
FF00
FF00
FF00
FF00
FF00
FF00
FF00
FF00
FF00
FF00
FF00
FF00
FF00
FF00
FF00
FF00
FF00
FF00
FF00
FF00
FF00
FFC0
FFC0
3FFF
3FFF
3FFF
3FFF
0FFF
0FFF
ENDCHAR

STARTCHAR ldbracerttp
ENCODING 173
SWIDTH 565 0
DWIDTH 30 0
BBX 16 46 2 -10
BITMAP
FFF0
FFF0
FFFC
FFFC
FFFC
FFFC
03FF
03FF
00FF
00FF
00FF
00FF
00FF
00FF
00FF
00FF
00FF
00FF
00FF
00FF
00FF
00FF
00FF
00FF
00FF
00FF
00FF
00FF
00FF
00FF
00FF
00FF
00FF
00FF
00FF
00FF
00FF
00FF
00FF
00FF
00FF
00FF
00FF
00FF
00FF
00FF
ENDCHAR

STARTCHAR ldbracertbt
ENCODING 174
SWIDTH 565 0
DWIDTH 30 0
BBX 16 48 2 -8
BITMAP
00FF
00FF
00FF
00FF
00FF
00FF
00FF
00FF
00FF
00FF
00FF
00FF
00FF
00FF
00FF
00FF
00FF
00FF
00FF
00FF
00FF
00FF
00FF
00FF
00FF
00FF
00FF
00FF
00FF
00FF
00FF
00FF
00FF
00FF
00FF
00FF
00FF
00FF
00FF
00FF
03FF
03FF
FFFC
FFFC
FFFC
FFFC
FFF0
FFF0
ENDCHAR

STARTCHAR ldbracelftmid
ENCODING 175
SWIDTH 565 0
DWIDTH 30 0
BBX 14 50 4 -10
BITMAP
03FC
03FC
03FC
03FC
03FC
03FC
03FC
03FC
03FC
03FC
03FC
03FC
03FC
03FC
03FC
03FC
03FC
03FC
03FC
03FC
0FF0
0FF0
0FF0
0FF0
3FC0
3FC0
FF00
FF00
3FC0
3FC0
0FF0
0FF0
0FF0
0FF0
03FC
03FC
03FC
03FC
03FC
03FC
03FC
03FC
03FC
03FC
03FC
03FC
03FC
03FC
03FC
03FC
ENDCHAR

STARTCHAR ldbracertmid
ENCODING 176
SWIDTH 565 0
DWIDTH 30 0
BBX 14 50 10 -10
BITMAP
FF00
FF00
FF00
FF00
FF00
FF00
FF00
FF00
FF00
FF00
FF00
FF00
FF00
FF00
FF00
FF00
FF00
FF00
FF00
FF00
3FC0
3FC0
3FC0
3FC0
0FF0
0FF0
03FC
03FC
0FF0
0FF0
3FC0
3FC0
3FC0
3FC0
FF00
FF00
FF00
FF00
FF00
FF00
FF00
FF00
FF00
FF00
FF00
FF00
FF00
FF00
FF00
FF00
ENDCHAR

STARTCHAR ldsigmalfttp
ENCODING 177
SWIDTH 565 0
DWIDTH 30 0
BBX 19 28 11 -10
BITMAP
FFFFE0
FFFFE0
FFFFE0
FFFFE0
FFFFE0
FFFFE0
3F8000
3F8000
1F8000
1F8000
07E000
07E000
07E000
07E000
01F800
01F800
01F800
01F800
007E00
007E00
007E00
007E00
001F80
001F80
001FE0
001FE0
0007E0
0007E0
ENDCHAR

STARTCHAR ldsigmalftbt
ENCODING 178
SWIDTH 565 0
DWIDTH 30 0
BBX 19 28 11 12
BITMAP
0007E0
0007E0
001FE0
001FE0
001F80
001F80
007E00
007E00
007E00
007E00
01F800
01F800
01F800
01F800
07E000
07E000
07E000
07E000
1F8000
1F8000
3F8000
3F8000
FFFFE0
FFFFE0
FFFFE0
FFFFE0
FFFFE0
FFFFE0
ENDCHAR

STARTCHAR ldbackslash
ENCODING 179
SWIDTH 565 0
DWIDTH 30 0
BBX 30 50 0 -10
BITMAP
F0000000
F0000000
F0000000
F0000000
FC000000
FC000000
FC000000
FC000000
3F000000
3F000000
3F000000
3F000000
3FC00000
3FC00000
0FF00000
0FF00000
03F00000
03F00000
03FC0000
03FC0000
00FC0000
00FC0000
00FF0000
00FF0000
003FC000
003FC000
000FC000
000FC000
000FF000
000FF000
0003FC00
0003FC00
0000FC00
0000FC00
0000FF00
0000FF00
00003F00
00003F00
00000FC0
00000FC0
00000FC0
00000FC0
000003F0
000003F0
000003FC
000003FC
000000FC
000000FC
000000FC
000000FC
ENDCHAR

STARTCHAR ldslash
ENCODING 180
SWIDTH 565 0
DWIDTH 30 0
BBX 30 50 0 -10
BITMAP
000000FC
000000FC
000000FC
000000FC
000003FC
000003FC
000003F0
000003F0
00000FC0
00000FC0
00000FC0
00000FC0
00003F00
00003F00
0000FF00
0000FF00
0000FC00
0000FC00
0003FC00
0003FC00
000FF000
000FF000
000FC000
000FC000
003FC000
003FC000
00FF0000
00FF0000
00FC0000
00FC0000
03FC0000
03FC0000
03F00000
03F00000
0FF00000
0FF00000
3FC00000
3FC00000
3F000000
3F000000
3F000000
3F000000
FC000000
FC000000
FC000000
FC000000
F0000000
F0000000
F0000000
F0000000
ENDCHAR

STARTCHAR ldsigmarttp
ENCODING 181
SWIDTH 565 0
DWIDTH 30 0
BBX 26 18 0 0
BITMAP
FFFFFFC0
FFFFFFC0
FFFFFFC0
FFFFFFC0
FFFFFFC0
FFFFFFC0
00003FC0
00003FC0
00003FC0
00003FC0
00003FC0
00003FC0
00003FC0
00003FC0
00003FC0
00003FC0
00003FC0
00003FC0
ENDCHAR

STARTCHAR ldsigmartbt
ENCODING 182
SWIDTH 565 0
DWIDTH 30 0
BBX 26 16 0 12
BITMAP
00003FC0
00003FC0
00003FC0
00003FC0
00003FC0
00003FC0
00003FC0
00003FC0
00003FC0
00003FC0
FFFFFFC0
FFFFFFC0
FFFFFFC0
FFFFFFC0
FFFFFFC0
FFFFFFC0
ENDCHAR

STARTCHAR l
ENCODING 183
SWIDTH 565 0
DWIDTH 30 0
BBX 18 50 0 -10
BITMAP
F00000
F00000
F00000
F00000
FC0000
FC0000
FC0000
FC0000
3F0000
3F0000
3FC000
3FC000
0FC000
0FC000
0FF000
0FF000
03FC00
03FC00
00FC00
00FC00
00FF00
007F00
003FC0
001FC0
001FC0
001FC0
001FC0
003FC0
007F00
00FF00
00FC00
00FC00
01FC00
03FC00
03F000
03F000
0FF000
0FC000
0FC000
0FC000
3FC000
3F0000
3F0000
3F0000
FC0000
FC0000
FC0000
FC0000
F00000
F00000
ENDCHAR

STARTCHAR lessequal
ENCODING 188
SWIDTH 565 0
DWIDTH 30 0
BBX 24 28 3 0
BITMAP
00003F
00003F
000FFF
000FFF
00FFFF
00FFFF
0FFFC0
0FFFC0
FFF000
FFF000
FFF000
FFF000
0FFFC0
0FFFC0
00FFFF
00FFFF
000FFF
000FFF
00003F
00003F
000000
000000
FFFFFF
FFFFFF
FFFFFF
FFFFFF
FFFFFF
FFFFFF
ENDCHAR

STARTCHAR notequal
ENCODING 189
SWIDTH 565 0
DWIDTH 30 0
BBX 24 28 3 0
BITMAP
0001F8
0001F8
0001F8
0003F0
0003F0
0003F0
FFFFFF
FFFFFF
FFFFFF
FFFFFF
FFFFFF
FFFFFF
003F00
003F00
007E00
007E00
FFFFFF
FFFFFF
FFFFFF
FFFFFF
FFFFFF
FFFFFF
03F000
03F000
03F000
07E000
07E000
07E000
ENDCHAR

STARTCHAR greaterequal
ENCODING 190
SWIDTH 565 0
DWIDTH 30 0
BBX 24 28 3 0
BITMAP
FC0000
FC0000
FFF000
FFF000
FFFF00
FFFF00
03FFF0
03FFF0
000FFF
000FFF
000FFF
000FFF
03FFF0
03FFF0
FFFF00
FFFF00
FFF000
FFF000
FC0000
FC0000
000000
000000
FFFFFF
FFFFFF
FFFFFF
FFFFFF
FFFFFF
FFFFFF
ENDCHAR

STARTCHAR integral
ENCODING 191
SWIDTH 565 0
DWIDTH 30 0
BBX 26 46 2 -8
BITMAP
0003FF00
0003FF00
000FFFC0
000FFFC0
003F0FC0
003F0FC0
003F0FC0
003F0FC0
003F0000
003F0000
003F0000
003F0000
003F0000
003F0000
003F0000
003F0000
003F0000
003F0000
003F0000
003F0000
003F0000
003F0000
003F0000
003F0000
003F0000
003F0000
003F0000
003F0000
003F0000
003F0000
003F0000
003F0000
003F0000
003F0000
003F0000
003F0000
003F0000
003F0000
FC3F0000
FC3F0000
FC3F0000
FC3F0000
FFFF0000
FFFC0000
3FFC0000
3FF00000
ENDCHAR

STARTCHAR therefore
ENCODING 192
SWIDTH 565 0
DWIDTH 30 0
BBX 24 24 3 0
BITMAP
007E00
007E00
01FF80
01FF80
01FF80
01FF80
01FF80
01FF80
007E00
007E00
000000
000000
000000
000000
3F00FC
3F00FC
FFC3FF
FFC3FF
FFC3FF
FFC3FF
FFC3FF
FFC3FF
3F00FC
3F00FC
ENDCHAR

STARTCHAR proportional
ENCODING 193
SWIDTH 565 0
DWIDTH 30 0
BBX 24 22 3 2
BITMAP
0FF0FF
0FF0FF
3FFFFF
3FFFFF
FF3FFF
FF3FFF
FC0FC0
FC0FC0
FC0F00
FC0F00
FC0F00
FC0F00
FC0F00
FC0F00
FC0FC0
FC0FC0
FF3FFF
FF3FFF
3FFFFF
3FFFFF
0FF0FF
0FF0FF
ENDCHAR

STARTCHAR infinity
ENCODING 194
SWIDTH 565 0
DWIDTH 30 0
BBX 28 22 1 2
BITMAP
07C03E00
0FE07F00
3FF9FFC0
3FF9FFC0
7E7FE7E0
7E7FE7E0
FC3FC3F0
FC3FC3F0
FC3FC3F0
FC3FC3F0
FC3FC3F0
FC3FC3F0
FC3FC3F0
FC3FC3F0
FC3FC3F0
FC3FC3F0
7E7FE7E0
7E7FE7E0
3FF9FFC0
3FF9FFC0
0FE07F00
07C03E00
ENDCHAR

STARTCHAR divide
ENCODING 195
SWIDTH 565 0
DWIDTH 30 0
BBX 24 30 3 0
BITMAP
003C00
003C00
00FF00
00FF00
00FF00
00FF00
003C00
003C00
000000
000000
000000
000000
FFFFFF
FFFFFF
FFFFFF
FFFFFF
FFFFFF
FFFFFF
000000
000000
000000
000000
003C00
003C00
00FF00
00FF00
00FF00
00FF00
003C00
003C00
ENDCHAR

STARTCHAR Delta
ENCODING 196
SWIDTH 565 0
DWIDTH 30 0
BBX 24 30 3 0
BITMAP
007E00
007E00
007E00
007E00
01FF80
01FF80
01FF80
01FF80
07E7E0
07E7E0
07E7E0
07E7E0
1F81F8
1F81F8
1F81F8
1F81F8
1F81F8
7F81FE
7F00FE
7F00FE
7F00FE
7F00FE
7F00FE
FFFFFF
FFFFFF
FFFFFF
FFFFFF
FFFFFF
FFFFFF
FFFFFF
ENDCHAR

STARTCHAR gradient
ENCODING 197
SWIDTH 565 0
DWIDTH 30 0
BBX 24 30 3 0
BITMAP
FFFFFF
FFFFFF
FFFFFF
FFFFFF
FFFFFF
FFFFFF
FFFFFF
7F00FE
7F00FE
7F00FE
7F00FE
7F00FE
7F81FE
1F81F8
1F81F8
1F81F8
1F81F8
1F81F8
07E7E0
07E7E0
07E7E0
07E7E0
01FF80
01FF80
01FF80
01FF80
007E00
007E00
007E00
007E00
ENDCHAR

STARTCHAR Phi
ENCODING 198
SWIDTH 565 0
DWIDTH 30 0
BBX 24 30 2 0
BITMAP
0FFFF0
0FFFF0
0FFFF0
0FFFF0
00FF00
00FF00
0FFFF0
0FFFF0
3FFFFC
3FFFFC
FFFFFF
FCFF3F
F8FF1F
F8FF1F
F8FF1F
F8FF1F
F8FF1F
F8FF1F
FCFF3F
FFFFFF
3FFFFC
3FFFFC
0FFFF0
0FFFF0
00FF00
00FF00
0FFFF0
0FFFF0
0FFFF0
0FFFF0
ENDCHAR

STARTCHAR Gamma
ENCODING 199
SWIDTH 565 0
DWIDTH 30 0
BBX 23 30 4 0
BITMAP
FFFFFE
FFFFFE
FFFFFE
FFFFFE
FFFFFE
FFFFFE
3FC07E
3FC07E
3FC07E
3FC07E
3FC000
3FC000
3FC000
3FC000
3FC000
3FC000
3FC000
3FC000
3FC000
3FC000
3FC000
3FC000
3FC000
3FC000
FFF800
FFF800
FFF800
FFF800
FFF800
FFF800
ENDCHAR

STARTCHAR similar
ENCODING 200
SWIDTH 565 0
DWIDTH 30 0
BBX 24 8 2 10
BITMAP
3FF00F
3FF00F
FFFFFF
FFFFFF
FFFFFF
FFFFFF
F00FFC
F00FFC
ENDCHAR

STARTCHAR approxequal
ENCODING 201
SWIDTH 565 0
DWIDTH 30 0
BBX 24 20 2 4
BITMAP
3FF00F
3FF00F
FFFFFF
FFFFFF
FFFFFF
FFFFFF
F00FFC
F00FFC
000000
000000
000000
000000
000000
000000
FFFFFF
FFFFFF
FFFFFF
FFFFFF
FFFFFF
FFFFFF
ENDCHAR

STARTCHAR Theta
ENCODING 202
SWIDTH 565 0
DWIDTH 30 0
BBX 24 30 2 0
BITMAP
00FF00
00FF00
3FFFFC
3FFFFC
3FFFFC
3FFFFC
3FC3FC
3FC3FC
FF00FF
FF00FF
FF00FF
FF00FF
FF3CFF
FF3CFF
FF3CFF
FF3CFF
FF3CFF
FF3CFF
FF00FF
FF00FF
FF00FF
FF00FF
3FC3FC
3FC3FC
3FFFFC
3FFFFC
3FFFFC
3FFFFC
00FF00
00FF00
ENDCHAR

STARTCHAR multiply
ENCODING 203
SWIDTH 565 0
DWIDTH 30 0
BBX 22 22 4 1
BITMAP
7E01F8
7E01F8
7F87F8
7F87F8
1FCFE0
1FCFE0
07FF80
07FF80
01FE00
00FC00
00FC00
01FE00
03FF00
07FF80
0FFFC0
1FCFE0
3F87F0
3F87F0
7E01F8
7E01F8
FC00FC
FC00FC
ENDCHAR

STARTCHAR Lambda
ENCODING 204
SWIDTH 565 0
DWIDTH 30 0
BBX 24 30 3 0
BITMAP
003C00
003C00
003C00
003C00
00FF00
00FF00
00FF00
00FF00
03FFC0
03FFC0
03FFC0
03FFC0
0FC3F0
0FC3F0
0FC3F0
0FC3F0
0FC3F0
3FC3FC
3FC3FC
3F00FC
3F00FC
3F00FC
3F00FC
3F00FC
FFC3FF
FFC3FF
FFC3FF
FFC3FF
FFC3FF
FFC3FF
ENDCHAR

STARTCHAR arrowdblboth
ENCODING 205
SWIDTH 565 0
DWIDTH 30 0
BBX 26 26 2 2
BITMAP
00C0C000
00C0C000
03C0F000
03C0F000
0FC0FC00
0FC0FC00
3FFFFF00
3FFFFF00
7FFFFF80
7FFFFF80
FFFFFFC0
FFFFFFC0
FC003FC0
FC003FC0
FFFFFFC0
FFFFFFC0
7FFFFF80
7FFFFF80
3FFFFF00
3FFFFF00
0FC0FC00
0FC0FC00
03C0F000
03C0F000
00C0C000
00C0C000
ENDCHAR

STARTCHAR arrowdblright
ENCODING 206
SWIDTH 565 0
DWIDTH 30 0
BBX 24 26 3 2
BITMAP
003C00
003C00
003F00
003F00
000FC0
000FC0
FFFFF0
FFFFF0
FFFFFC
FFFFFC
FFFFFF
FFFFFF
0000FF
0000FF
FFFFFF
FFFFFF
FFFFFC
FFFFFC
FFFFF0
FFFFF0
000FC0
000FC0
003F00
003F00
003C00
003C00
ENDCHAR

STARTCHAR equivalence
ENCODING 207
SWIDTH 565 0
DWIDTH 30 0
BBX 24 26 3 0
BITMAP
FFFFFF
FFFFFF
FFFFFF
FFFFFF
FFFFFF
FFFFFF
000000
000000
000000
000000
FFFFFF
FFFFFF
FFFFFF
FFFFFF
FFFFFF
FFFFFF
000000
000000
000000
000000
FFFFFF
FFFFFF
FFFFFF
FFFFFF
FFFFFF
FFFFFF
ENDCHAR

STARTCHAR Pi
ENCODING 208
SWIDTH 565 0
DWIDTH 30 0
BBX 24 30 3 0
BITMAP
FFFFFF
FFFFFF
FFFFFF
FFFFFF
FFFFFF
FFFFFF
3FC3FC
3FC3FC
3FC3FC
3FC3FC
3FC3FC
3FC3FC
3FC3FC
3FC3FC
3FC3FC
3FC3FC
3FC3FC
3FC3FC
3FC3FC
3FC3FC
3FC3FC
3FC3FC
3FC3FC
3FC3FC
FFC3FF
FFC3FF
FFC3FF
FFC3FF
FFC3FF
FFC3FF
ENDCHAR

STARTCHAR Psi
ENCODING 209
SWIDTH 565 0
DWIDTH 30 0
BBX 24 30 3 0
BITMAP
07FFE0
07FFE0
07FFE0
07FFE0
00FF00
00FF00
F8FF1F
F8FF1F
F8FF1F
F8FF1F
F8FF1F
F8FF1F
F8FF1F
F8FF1F
F8FF1F
F8FF1F
FFFFFF
FFFFFF
3FFFFC
3FFFFC
0FFFF0
0FFFF0
00FF00
00FF00
00FF00
00FF00
0FFFF0
0FFFF0
0FFFF0
0FFFF0
ENDCHAR

STARTCHAR Sigma
ENCODING 211
SWIDTH 565 0
DWIDTH 30 0
BBX 24 30 3 0
BITMAP
FFFFFF
FFFFFF
FFFFFF
FFFFFF
FFFFFF
FFFFFF
3FC03F
3FC03F
0FF03F
0FF03F
03FC00
03FC00
00FF00
00FF00
00FF00
00FF00
03FC00
03FC00
0FFC3F
0FF03F
3FF03F
3FF03F
FFC03F
FFC03F
FFFFFF
FFFFFF
FFFFFF
FFFFFF
FFFFFF
FFFFFF
ENDCHAR

STARTCHAR radical
ENCODING 214
SWIDTH 565 0
DWIDTH 30 0
BBX 28 40 1 -6
BITMAP
00000FF0
00000FF0
00000FF0
00000FF0
00000FF0
00000FF0
00003FC0
00003FC0
00003FC0
00003FC0
00003F00
00003F00
00003F00
00003F00
FC00FF00
FC00FF00
FF00FC00
FF00FC00
FF00FC00
FF00FC00
FFC3FC00
FFC3FC00
3FC3F000
3FC3F000
0FF3F000
0FF3F000
0FFFF000
0FFFF000
03FFC000
03FFC000
03FFC000
03FFC000
00FFC000
00FFC000
00FF0000
00FF0000
003F0000
003F0000
003F0000
003F0000
ENDCHAR

STARTCHAR Omega
ENCODING 215
SWIDTH 565 0
DWIDTH 30 0
BBX 24 30 3 0
BITMAP
0FFFF0
0FFFF0
3FFFFC
3FFFFC
3FFFFC
3FFFFC
FFC3FF
FFC3FF
FF00FF
FF00FF
FF00FF
FF00FF
FF00FF
FF00FF
FF00FF
FF00FF
FF00FF
FF00FF
3FC3FC
3FC3FC
0FC3F0
0FC3F0
0FC3F0
0FC3F0
FFC3FF
FFC3FF
FFC3FF
FFC3FF
FFC3FF
FFC3FF
ENDCHAR

STARTCHAR Xi
ENCODING 216
SWIDTH 565 0
DWIDTH 30 0
BBX 24 30 3 0
BITMAP
FFFFFF
FFFFFF
FFFFFF
FFFFFF
FFFFFF
FFFFFF
F0003F
F0003F
000000
000000
0F00F0
0F00F0
0FFFF0
0FFFF0
0FFFF0
0FFFF0
0F00F0
0F00F0
000000
000000
FC003F
FC003F
FC003F
FC003F
FFFFFF
FFFFFF
FFFFFF
FFFFFF
FFFFFF
FFFFFF
ENDCHAR

STARTCHAR Upsilon1
ENCODING 217
SWIDTH 565 0
DWIDTH 30 0
BBX 24 30 3 0
BITMAP
FF00FF
FF00FF
FF00FF
FF00FF
FF00FF
FF00FF
3FC3FC
3FC3FC
3FC3FC
3FC3FC
0FC3F0
0FC3F0
0FC3F0
0FC3F0
03FFC0
03FFC0
00FF00
00FF00
00FF00
00FF00
00FF00
00FF00
00FF00
00FF00
0FFFF0
0FFFF0
0FFFF0
0FFFF0
0FFFF0
0FFFF0
ENDCHAR

STARTCHAR propersubset
ENCODING 218
SWIDTH 565 0
DWIDTH 30 0
BBX 24 28 3 0
BITMAP
03FFFF
03FFFF
3FFFFF
3FFFFF
3FFFFF
3FFFFF
FFC000
FFC000
FF0000
FF0000
FF0000
FF0000
FF0000
FF0000
FF0000
FF0000
FF0000
FF0000
FF0000
FF0000
FFC000
FFC000
3FFFFF
3FFFFF
3FFFFF
3FFFFF
03FFFF
03FFFF
ENDCHAR

STARTCHAR propersuperset
ENCODING 219
SWIDTH 565 0
DWIDTH 30 0
BBX 22 28 4 0
BITMAP
FFFF00
FFFF00
FFFFF0
FFFFF0
FFFFF0
FFFFF0
000FFC
000FFC
0003FC
0003FC
0003FC
0003FC
0003FC
0003FC
0003FC
0003FC
0003FC
0003FC
0003FC
0003FC
000FFC
000FFC
FFFFF0
FFFFF0
FFFFF0
FFFFF0
FFFF00
FFFF00
ENDCHAR

STARTCHAR intersection
ENCODING 220
SWIDTH 565 0
DWIDTH 30 0
BBX 24 30 3 0
BITMAP
03FFC0
03FFC0
3FFFFC
3FFFFC
3FFFFC
3FFFFC
FFC3FF
FFC3FF
FF00FF
FF00FF
FF00FF
FF00FF
FF00FF
FF00FF
FF00FF
FF00FF
FF00FF
FF00FF
FF00FF
FF00FF
FF00FF
FF00FF
FF00FF
FF00FF
FF00FF
FF00FF
FF00FF
FF00FF
FF00FF
FF00FF
ENDCHAR

STARTCHAR union
ENCODING 221
SWIDTH 565 0
DWIDTH 30 0
BBX 24 30 3 0
BITMAP
FF00FF
FF00FF
FF00FF
FF00FF
FF00FF
FF00FF
FF00FF
FF00FF
FF00FF
FF00FF
FF00FF
FF00FF
FF00FF
FF00FF
FF00FF
FF00FF
FF00FF
FF00FF
FF00FF
FF00FF
FF00FF
FF00FF
FFC3FF
FFC3FF
3FFFFC
3FFFFC
3FFFFC
3FFFFC
03FFC0
03FFC0
ENDCHAR

STARTCHAR logicaland
ENCODING 222
SWIDTH 565 0
DWIDTH 30 0
BBX 24 30 3 0
BITMAP
00FF00
00FF00
00FF00
00FF00
00FF00
00FF00
03FFC0
03FFC0
03FFC0
03FFC0
0FC3F0
0FC3F0
0FC3F0
0FC3F0
0FC3F0
0FC3F0
3F00FC
3F00FC
3F00FC
3F00FC
FF00FF
FF00FF
FF00FF
FF00FF
FC003F
FC003F
FC003F
FC003F
FC003F
FC003F
ENDCHAR

STARTCHAR logicalor
ENCODING 223
SWIDTH 565 0
DWIDTH 30 0
BBX 24 30 3 0
BITMAP
FC003F
FC003F
FC003F
FC003F
FC003F
FC003F
FF00FF
FF00FF
FF00FF
FF00FF
3F00FC
3F00FC
3F00FC
3F00FC
0FC3F0
0FC3F0
0FC3F0
0FC3F0
0FC3F0
0FC3F0
03FFC0
03FFC0
03FFC0
03FFC0
00FF00
00FF00
00FF00
00FF00
00FF00
00FF00
ENDCHAR

STARTCHAR logicalnot
ENCODING 224
SWIDTH 565 0
DWIDTH 30 0
BBX 24 14 3 6
BITMAP
FFFFFF
FFFFFF
FFFFFF
FFFFFF
FFFFFF
FFFFFF
0000FF
0000FF
0000FF
0000FF
0000FF
0000FF
0000FF
0000FF
ENDCHAR

STARTCHAR alpha
ENCODING 225
SWIDTH 565 0
DWIDTH 30 0
BBX 25 24 2 0
BITMAP
00FC3F80
00FC3F80
0FFFFF80
0FFFFF80
3FFFFC00
3FFFFC00
3FC3FC00
3FC3FC00
FF03FC00
FF03FC00
FF03F000
FF03F000
FF03F000
FF03F000
FF03F000
FF03F000
FF0FF000
FF0FF000
FFFFFF00
FFFFFF00
3FFFFF00
3FFFFF00
0FFC3F00
0FFC3F00
ENDCHAR

STARTCHAR beta
ENCODING 226
SWIDTH 565 0
DWIDTH 30 0
BBX 24 44 2 -10
BITMAP
00FFF0
00FFF0
03FFFC
03FFFC
03FFFC
03FFFC
0FF0FF
0FF0FF
0FC03F
0FC03F
0FC03F
0FC03F
0FC0FF
0FC0FF
0FCFFC
0FCFFC
3FCFF0
3FCFF0
3F0FFC
3F0FFC
3F00FF
3F00FF
3F00FF
3F00FF
3F00FF
3F00FF
3F03FF
3F03FF
FFFFFC
FFFFFC
FFFFFC
FFFFFC
FCFFC0
FCFFC0
FC0000
FC0000
FC0000
FC0000
FC0000
FC0000
FC0000
FC0000
FC0000
FC0000
ENDCHAR

STARTCHAR chi
ENCODING 227
SWIDTH 565 0
DWIDTH 30 0
BBX 24 34 2 -10
BITMAP
3FC03F
3FC03F
3FC03F
3FC03F
0FE0FF
0FF0FF
0FF0FC
0FF0FC
03F3F0
03F3F0
00FFC0
00FFC0
00FF00
007F00
007F00
007E00
00FE00
00FF00
03FF00
03FF00
03FF80
03FFC0
0FFFC0
0FFFC0
3FCFC0
3FCFC0
3F0FF0
3F0FF0
FF0FF0
FF0FF0
FC03FC
FC03FC
FC03FC
FC03FC
ENDCHAR

STARTCHAR delta
ENCODING 228
SWIDTH 565 0
DWIDTH 30 0
BBX 24 36 2 0
BITMAP
000FFF
003FFF
007FFF
007FFF
00FFFF
00FFFF
00FC00
00FC00
00FE00
007E00
003F80
003F80
03FFE0
03FFE0
3FFFF8
3FFFFC
3FFFFC
3FFFFC
FFC0FF
FFC0FF
FF00FF
FF00FF
FF00FF
FF00FF
FF00FF
FF00FF
FF00FF
FF00FF
FFC3FF
FFC3FF
3FFFFC
3FFFFC
3FFFFC
3FFFFC
0FFFC0
0FFFC0
ENDCHAR

STARTCHAR epsilon
ENCODING 229
SWIDTH 565 0
DWIDTH 30 0
BBX 24 24 2 0
BITMAP
00FFFF
00FFFF
0FFFFF
0FFFFF
0FFFFF
0FFFFF
3FC000
3FC000
3FC000
3FC000
FFFFF0
FFFFF0
FFFFF0
FFFFF0
FF0000
FF0000
FF0000
FF0000
3FFFFC
3FFFFC
3FFFFC
3FFFFC
0FFFF0
0FFFF0
ENDCHAR

STARTCHAR phi
ENCODING 230
SWIDTH 565 0
DWIDTH 30 0
BBX 24 36 2 -6
BITMAP
000F00
000F00
000F00
000F00
000F00
000F00
00FFC0
00FFC0
0FFFFC
0FFFFC
3FFFFC
3FBCFC
3FBCFF
3FBC7F
FE3C7F
FE3C7F
FE3C7F
FE3C7F
FE3C7F
FE3C7F
FE787F
FE787F
FE787C
FE79FC
FE79FC
FFFFFC
3FFFF0
3FFFF0
0FFF00
0FFF00
01F000
01F000
01E000
01E000
01E000
01E000
ENDCHAR

STARTCHAR gamma
ENCODING 231
SWIDTH 565 0
DWIDTH 30 0
BBX 24 34 4 -10
BITMAP
FF003F
FF003F
FF00FF
FF00FF
3FC0FC
3FC0FC
3FC3FC
3FC3FC
3FC3F0
3FC3F0
0FCFF0
0FCFF0
0FCFC0
0FCFC0
0FFFC0
0FFFC0
03FF00
03FF00
03FF00
03FF00
00FC00
00FC00
03FC00
03FC00
03F000
07F000
0FF000
0FC000
0FC000
0FC000
3FC000
3F8000
3F0000
3F0000
ENDCHAR

STARTCHAR eta
ENCODING 232
SWIDTH 565 0
DWIDTH 30 0
BBX 24 34 2 -10
BITMAP
FF0FFC
FF0FFC
FFFFFF
FFFFFF
3FF0FF
3FF0FF
3FC0FF
3FC0FF
3FC0FF
3FC0FF
3FC0FF
3FC0FF
3FC3FC
3FC3FC
3FC3FC
3FC3FC
FF03FC
FF03FC
FF03FC
FF03FC
FF03FC
FF03FC
FF03FC
FF03FC
000FF0
000FF0
000FF0
000FF0
000FF0
000FF0
000FF0
000FF0
000FF0
000FF0
ENDCHAR

STARTCHAR iota
ENCODING 233
SWIDTH 565 0
DWIDTH 30 0
BBX 20 24 6 0
BITMAP
FFF000
FFF000
FFF000
FFF000
0FF000
0FF000
0FF000
0FF000
0FF000
0FF000
3FC000
3FC000
3FC000
3FC000
3FC000
3FC000
3FC3F0
3FC3F0
3FFFF0
3FFFF0
3FFFF0
3FFFF0
03FF00
03FF00
ENDCHAR

STARTCHAR theta
ENCODING 234
SWIDTH 565 0
DWIDTH 30 0
BBX 24 34 2 0
BITMAP
003FC0
003FC0
03FFF0
03FFF0
0FFFFC
0FFFFC
0FC0FC
0FC0FC
3FC0FF
3FC0FF
3F00FF
3F00FF
FF00FF
FF00FF
FFFFFF
FFFFFF
FFFFFF
FFFFFF
FF00FF
FF00FF
FF00FF
FF00FF
FF03FC
FF03FC
FF03FC
FF03FC
FF0FF0
FF0FF0
3FFFF0
3FFFF0
3FFFC0
3FFFC0
0FFC00
0FFC00
ENDCHAR

STARTCHAR kappa
ENCODING 235
SWIDTH 565 0
DWIDTH 30 0
BBX 24 24 4 0
BITMAP
FFC0FC
FFC0FC
3FC3FC
3FC3FC
3FC3F0
3FC3F0
3FCFC0
3FCFC0
3FFF00
3FFF00
3FFC00
3FFC00
3FFF00
3FFF00
3FFFC0
3FFFC0
FF3FF0
FF3FF0
FF0FFC
FF0FFC
FF03FF
FF03FF
FF00FF
FF00FF
ENDCHAR

STARTCHAR lambda
ENCODING 236
SWIDTH 565 0
DWIDTH 30 0
BBX 26 34 2 0
BITMAP
3FF00000
3FF00000
3FF00000
3FF00000
03FC0000
03FC0000
03FC0000
03FC0000
00FC0000
00FC0000
00FF0000
00FF0000
00FF0000
00FF0000
00FFC000
00FFC000
03FFC000
03FFC000
03FFC000
03FFC000
0FFFF000
0FFFF000
0FC3F000
0FC3F000
3FC3FC00
3FC3FC00
3F03FC00
3F03FC00
FF00FF00
FF00FF00
FF00FFC0
FF00FFC0
FF00FFC0
FF00FFC0
ENDCHAR

STARTCHAR nu
ENCODING 238
SWIDTH 565 0
DWIDTH 30 0
BBX 26 24 2 0
BITMAP
FFF03FC0
FFF03FC0
FFF03FC0
FFF03FC0
FFF03FC0
FFF03FC0
0FF03FC0
0FF03FC0
0FF03F00
0FF03F00
0FF07F00
0FF0FF00
0FF0FC00
0FF0FC00
0FF3F000
0FF3F000
03FFC000
03FFC000
03FFC000
03FFC000
03FF0000
03FF0000
00FC0000
00FC0000
ENDCHAR

STARTCHAR partialdiff
ENCODING 239
SWIDTH 565 0
DWIDTH 30 0
BBX 22 34 4 -2
BITMAP
0FFC00
0FFC00
0FFFC0
0FFFC0
0FFFF0
0FFFF0
000FF0
000FF0
0003FC
0003FC
0003FC
0003FC
03FFFC
03FFFC
3FFFFC
3FFFFC
3FFFFC
3FFFFC
FFC3FC
FFC3FC
FF03FC
FF03FC
FF03FC
FF03FC
FF03FC
FF03FC
FF0FFC
FF0FFC
3FFFF0
3FFFF0
3FFFF0
3FFFF0
03FF00
03FF00
ENDCHAR

STARTCHAR pi
ENCODING 240
SWIDTH 565 0
DWIDTH 30 0
BBX 25 24 3 0
BITMAP
FFFFFF80
FFFFFF80
FFFFFF80
FFFFFF80
0FE1FC00
0FE1FC00
0FE1FC00
0FE1FC00
0FE1FC00
3FE3FC00
3F87F000
3F87F000
3F87F000
3F87F000
3F87F000
3F87F000
FF9FF000
FF9FF000
FE1FC000
FE1FC000
FE1FFC00
FE1FFC00
FE1FFC00
FE0FFC00
ENDCHAR

STARTCHAR psi
ENCODING 241
SWIDTH 565 0
DWIDTH 30 0
BBX 26 40 1 -10
BITMAP
000F0000
000F0000
000F0000
000F0000
000F0000
000F0000
3F8F1FC0
3F8F1FC0
3F8F1FC0
3F8F1FC0
3F8F1FC0
3F8F1FC0
3F8F1FC0
3F8F1FC0
FE1E1FC0
FE1E1FC0
FE1E1FC0
FE1E1FC0
FE1E1FC0
FE1E1FC0
FE1E1FC0
FE1E1FC0
FE1E7F00
FE1E7F00
FFFFFF00
FFFFFF00
3FFFFC00
3FFFFC00
0FFFF000
0FFFF000
007E0000
007E0000
007E0000
007E0000
007E0000
007E0000
00780000
00780000
00780000
00780000
ENDCHAR

STARTCHAR rho
ENCODING 242
SWIDTH 565 0
DWIDTH 30 0
BBX 26 34 2 -10
BITMAP
00FFF000
00FFF000
0FFFFF00
0FFFFF00
0FF0FF00
0FF0FF00
0FC03FC0
0FC03FC0
3FC03FC0
3FC03FC0
3FC03FC0
3FC03FC0
3FC03FC0
3FC03FC0
3FC03FC0
3FC03FC0
3FF0FFC0
3FF0FFC0
3FFFFF00
3FFFFF00
3FFFFF00
3FFFFF00
3F3FF000
3F3FF000
FF000000
FF000000
FF000000
FF000000
FF000000
FF000000
FF000000
FF000000
FF000000
FF000000
ENDCHAR

STARTCHAR sigma
ENCODING 243
SWIDTH 565 0
DWIDTH 30 0
BBX 26 24 2 0
BITMAP
00FFFFC0
00FFFFC0
0FFFFFC0
0FFFFFC0
3FFFFFC0
3FFFFFC0
3FC0FC00
3FC0FC00
FF00FF00
FF00FF00
FF00FF00
FF00FF00
FF00FF00
FF00FF00
FF00FF00
FF00FF00
FF03FF00
FF03FF00
3FFFFC00
3FFFFC00
3FFFFC00
3FFFFC00
03FFC000
03FFC000
ENDCHAR

STARTCHAR tau
ENCODING 244
SWIDTH 565 0
DWIDTH 30 0
BBX 22 24 4 0
BITMAP
FFFFFC
FFFFFC
FFFFFC
FFFFFC
FFFFFC
FFFFFC
03FC00
03FC00
03FC00
03FC00
0FF000
0FF000
0FF000
0FF000
0FF000
0FF000
0FF0FC
0FF0FC
0FFFFC
0FFFFC
0FFFFC
0FFFFC
00FFC0
00FFC0
ENDCHAR

STARTCHAR florin
ENCODING 246
SWIDTH 565 0
DWIDTH 30 0
BBX 24 40 2 -8
BITMAP
0003FF
0003FF
000FFF
000FFF
000FFF
000FFF
003F00
003F00
003F00
003F00
0FFFFC
0FFFFC
0FFFFC
0FFFFC
0FFFFC
0FFFFC
003F00
003F00
003F00
003F00
003F00
003F00
003F00
003F00
003F00
003F00
00FC00
00FC00
00FC00
00FC00
00FC00
00FC00
00FC00
00FC00
FFFC00
FFFC00
FFF000
FFF000
FFC000
FFC000
ENDCHAR

STARTCHAR omega
ENCODING 247
SWIDTH 565 0
DWIDTH 30 0
BBX 24 24 2 0
BITMAP
3FC03F
3FC03F
3FC03F
3FC03F
3FC03F
3FC03F
3F0F3F
3F0F3F
FF0F3F
FF0F3F
FF0F3F
FF0F3F
FF3C3F
FF3C3F
FF3CFF
FF3CFF
FF3CFF
FF3CFF
FFFFFC
FFFFFC
3FFFFC
3FFFFC
0FCFF0
0FCFF0
ENDCHAR

STARTCHAR xi
ENCODING 248
SWIDTH 565 0
DWIDTH 30 0
BBX 24 42 4 -8
BITMAP
3FFFFF
3FFFFF
3FFFFF
3FFFFF
3FFFFF
00FF00
00FF00
00F800
03F000
03F000
0FF000
0FF000
0FF000
0FF800
03FFC0
03FFC0
00FFC0
00FFC0
0FFFC0
0FFFC0
3FC000
3FC000
FF0000
FF0000
FF0000
FF0000
FFC000
FFC000
FFFE00
FFFF00
3FFF80
3FFF80
0FFFC0
0FFFC0
000FC0
000FC0
000FC0
000FC0
003F80
003F80
0FFC00
0FFC00
ENDCHAR

STARTCHAR upsilon
ENCODING 249
SWIDTH 565 0
DWIDTH 30 0
BBX 24 24 2 0
BITMAP
3FC0FF
3FC0FF
3FC0FF
3FC0FF
3FC0FF
3FC0FF
3FC0FF
3FC0FF
FF00FF
FF00FF
FF00FF
FF00FF
FF00FC
FF00FC
FF00FC
FF00FC
FF03FC
FF03FC
3FFFF0
3FFFF0
3FFFF0
3FFFF0
0FFF00
0FFF00
ENDCHAR

STARTCHAR zeta
ENCODING 250
SWIDTH 565 0
DWIDTH 30 0
BBX 24 42 4 -8
BITMAP
3FFFFF
3FFFFF
3FFFFF
3FFFFF
3FFFFF
0007C0
000FC0
000FC0
003F00
003F00
00FC00
00FC00
03F000
03F000
0FF000
0FF000
3FC000
3FC000
3FC000
3FC000
FFC000
FFC000
FF0000
FF0000
FF0000
FF0000
FFC000
FFC000
FFFFC0
FFFFC0
3FFFF0
3FFFF0
03FFFC
03FFFC
0000FC
0000FC
0000FC
0000FC
0003F8
0003F8
00FFC0
00FFC0
ENDCHAR

STARTCHAR arrowleft
ENCODING 251
SWIDTH 565 0
DWIDTH 30 0
BBX 26 22 2 2
BITMAP
03F00000
03F00000
0FF00000
0FF00000
0FC00000
0FC00000
3FC00000
3FC00000
FFFFFFC0
FFFFFFC0
FFFFFFC0
FFFFFFC0
FFFFFFC0
FFFFFFC0
3FC00000
3FC00000
0FC00000
0FC00000
0FF00000
0FF00000
03F00000
03F00000
ENDCHAR

STARTCHAR arrowup
ENCODING 252
SWIDTH 565 0
DWIDTH 30 0
BBX 22 38 4 -4
BITMAP
003000
003000
00FC00
00FC00
03FF00
03FF00
0FFFC0
0FFFC0
0FFFC0
0FFFC0
3FFFF0
3FFFF0
FCFCFC
FCFCFC
F0FC3C
F0FC3C
F0FC3C
F0FC3C
00FC00
00FC00
00FC00
00FC00
00FC00
00FC00
00FC00
00FC00
00FC00
00FC00
00FC00
00FC00
00FC00
00FC00
00FC00
00FC00
00FC00
00FC00
00FC00
00FC00
ENDCHAR

STARTCHAR arrowright
ENCODING 253
SWIDTH 565 0
DWIDTH 30 0
BBX 26 22 2 0
BITMAP
0003F000
0003F000
0003FC00
0003FC00
0000FC00
0000FC00
0000FF00
0000FF00
FFFFFFC0
FFFFFFC0
FFFFFFC0
FFFFFFC0
FFFFFFC0
FFFFFFC0
0000FF00
0000FF00
0000FC00
0000FC00
0003FC00
0003FC00
0003F000
0003F000
ENDCHAR

STARTCHAR arrowdown
ENCODING 254
SWIDTH 565 0
DWIDTH 30 0
BBX 22 38 4 -6
BITMAP
00FC00
00FC00
00FC00
00FC00
00FC00
00FC00
00FC00
00FC00
00FC00
00FC00
00FC00
00FC00
00FC00
00FC00
00FC00
00FC00
00FC00
00FC00
00FC00
00FC00
F0FC3C
F0FC3C
F0FC3C
F0FC3C
FCFCFC
FCFCFC
3FFFF0
3FFFF0
0FFFC0
0FFFC0
0FFFC0
0FFFC0
03FF00
03FF00
00FC00
00FC00
003000
003000
ENDCHAR
ENDFONT
